<svg width="865" height="381" viewBox="0 0 865 381" fill="none" xmlns="http://www.w3.org/2000/svg">
<g filter="url(#filter0_d_16_489)">
<path fill-rule="evenodd" clip-rule="evenodd" d="M648.241 145.112C625.473 152.335 596.953 156.66 579.421 148.028C561.891 139.397 535.075 117.618 521.565 136.476C505.499 158.901 554.514 212.879 621.865 215.54C621.865 215.54 729.806 352.641 762.941 322.852C780.529 307.04 748.989 277.266 748.989 277.266L753.256 204.35C753.256 204.35 771.352 203.042 771.412 185.29C771.494 160.945 740.689 115.782 648.241 145.112" fill="#EA5656"/>
<path d="M702.88 135.833C725.958 135.833 741.142 142.388 750.822 149.498C765.807 160.504 771.11 175.203 771.077 185.289C771.018 202.531 753.409 204.002 753.232 204.014L752.938 204.036L752.921 204.33L748.643 277.404L748.758 277.511C748.951 277.693 768.123 295.973 767.938 311.194C767.883 315.698 766.125 319.538 762.716 322.603C759.196 325.768 754.612 327.136 749.104 326.66C707.405 323.073 622.976 216.408 622.128 215.332L622.032 215.211L621.878 215.204C593.66 214.089 571.78 204.235 558.395 196.163C541.78 186.147 528.699 173.137 522.505 160.469C517.87 150.991 517.633 142.541 521.837 136.671C532.588 121.665 552.412 133.11 568.342 142.305C572.235 144.552 575.912 146.675 579.274 148.33C600.47 158.765 634.636 149.78 648.343 145.432C670.16 138.511 688.133 135.833 702.88 135.833ZM751.196 327.422C755.952 327.422 759.97 325.974 763.165 323.102C766.72 319.906 768.551 315.902 768.609 311.202C768.789 296.309 750.938 278.684 749.332 277.131L753.574 204.653C755.939 204.376 771.691 201.892 771.748 185.292C771.783 175.041 766.407 160.112 751.218 148.956C735.228 137.212 704.364 126.956 648.139 144.793C634.511 149.116 600.548 158.057 579.569 147.727C576.229 146.083 572.56 143.966 568.677 141.724C552.512 132.392 532.396 120.779 521.292 136.28C516.937 142.36 517.153 151.054 521.902 160.764C528.151 173.545 541.327 186.657 558.049 196.739C571.476 204.835 593.411 214.718 621.697 215.869C623.283 217.873 644.036 243.959 669.355 270.135C704.597 306.569 731.408 325.811 749.046 327.327C749.778 327.391 750.495 327.422 751.196 327.422" fill="#0F227A"/>
<path d="M702.887 137.999C725.384 137.999 740.142 144.349 749.535 151.249C763.88 161.785 768.934 176.167 768.903 185.281C768.852 200.442 753.713 201.798 753.069 201.847C751.819 201.945 750.825 202.951 750.752 204.202L746.484 277.12C746.439 277.86 746.727 278.581 747.265 279.09C747.452 279.267 765.943 296.914 765.765 311.173C765.715 315.098 764.244 318.308 761.263 320.986C758.165 323.773 754.25 324.92 749.291 324.494C708.526 320.989 624.679 215.058 623.836 213.988C623.382 213.41 622.697 213.061 621.963 213.033C576.432 211.233 536.631 184.408 524.457 159.514C520.191 150.789 519.887 143.125 523.605 137.936C533.209 124.532 551.296 134.973 567.255 144.187C571.18 146.453 574.888 148.593 578.314 150.279C600.218 161.062 635.043 151.931 648.999 147.503C670.612 140.647 688.363 137.999 702.887 137.999V137.999ZM751.215 329.596C756.511 329.596 761.011 327.961 764.618 324.718C768.643 321.099 770.717 316.561 770.782 311.228C770.961 296.519 755.45 280.143 751.56 276.27L755.64 206.569C762.955 205.245 773.872 199.648 773.922 185.298C773.958 174.513 768.352 158.843 752.506 147.205C736.109 135.16 704.578 124.607 647.482 142.721C619.623 151.559 594.595 152.701 580.529 145.778C577.254 144.164 573.615 142.065 569.764 139.84C561.562 135.106 552.267 129.74 543.608 127.545C533.088 124.881 524.986 127.392 519.526 135.014C514.684 141.773 514.834 151.258 519.949 161.719C526.378 174.865 539.856 188.307 556.927 198.6C570.413 206.731 592.346 216.638 620.61 217.996C629.498 229.178 707.546 325.94 748.86 329.494C749.661 329.562 750.447 329.596 751.215 329.596" fill="#0F227A"/>
<path fill-rule="evenodd" clip-rule="evenodd" d="M740.359 199.466C740.359 199.466 755.601 198.055 761.257 212.632C766.914 227.209 756.507 235.921 756.507 235.921C756.507 235.921 768.758 268.235 750.125 276.899C731.491 285.56 685.519 228.465 707.927 208.372L740.359 199.466" fill="#EA5656"/>
<path d="M745.788 278.142C747.387 278.142 748.889 277.842 750.265 277.202C768.16 268.884 757.924 238.879 756.899 236.018C758.261 234.754 766.833 226.074 761.569 212.51C755.888 197.867 740.481 199.12 740.328 199.132L740.39 199.8C740.539 199.788 755.447 198.591 760.944 212.753C766.451 226.942 756.393 235.578 756.291 235.664L756.108 235.817L756.193 236.04C756.313 236.361 768.119 268.163 749.983 276.594C740.197 281.146 722.904 266.928 712.497 251.148C703.196 237.045 697.17 218.469 708.151 208.622L707.703 208.122C696.404 218.254 702.48 237.182 711.936 251.517C721.28 265.686 735.491 278.141 745.788 278.142" fill="#0F227A"/>
<path d="M745.812 280.311C747.708 280.313 749.509 279.951 751.182 279.173C769.404 270.703 761.726 243.562 759.409 236.616C763.369 232.41 768.08 223.281 763.595 211.723C758.579 198.797 746.054 196.416 740.128 196.968C738.748 197.096 737.733 198.318 737.86 199.698C737.988 201.076 739.212 202.093 740.583 201.966C741.154 201.916 754.042 200.975 758.918 213.539C763.823 226.18 755.254 233.692 754.886 234.004C754.081 234.693 753.784 235.819 754.16 236.81C754.274 237.111 765.364 267.047 749.066 274.623C741.399 278.187 725.481 266.889 714.31 249.952C705.508 236.605 699.649 219.166 709.602 210.241C710.635 209.315 710.72 207.729 709.795 206.698C708.87 205.666 707.284 205.578 706.253 206.505C693.924 217.557 700.168 237.622 710.122 252.713C719.678 267.204 734.409 280.311 745.812 280.311Z" fill="#0F227A"/>
<path d="M621.902 218.124C622.399 218.124 622.902 217.976 623.34 217.669C624.474 216.873 624.75 215.309 623.953 214.174C623.81 213.969 609.531 193.598 605.134 185.626C604.464 184.414 602.939 183.971 601.726 184.642C600.512 185.311 600.07 186.837 600.74 188.051C605.267 196.257 619.252 216.211 619.845 217.055C620.334 217.752 621.111 218.124 621.902 218.124" fill="#0F227A"/>
<path d="M727.774 159.259C730.572 159.259 733.565 159.741 736.617 160.733C744.679 163.354 754.079 170.338 754.038 181.397C754.019 186.668 752.526 190.78 749.599 193.617C743.958 199.085 734.194 198.819 730.986 198.727C730.443 198.714 730.037 198.706 729.795 198.715C727.662 198.8 723.321 197.829 720.091 194.801C717.583 192.449 716.266 189.325 716.174 185.515C716.156 184.8 715.837 184.129 715.295 183.666C714.372 182.871 706.558 175.65 713.912 165.45C716.825 161.41 721.866 159.259 727.774 159.259V159.259ZM732.977 203.779C737.859 203.779 746.996 203.128 753.093 197.219C757.026 193.406 759.032 188.089 759.056 181.415C759.098 170.091 750.899 160.098 738.168 155.962C726.554 152.187 715.435 154.759 709.841 162.515C702.168 173.157 706.999 182.562 711.212 186.726C711.561 191.395 713.432 195.434 716.66 198.46C720.758 202.307 726.315 203.873 729.996 203.73C730.171 203.723 730.459 203.735 730.847 203.744C731.402 203.761 732.124 203.779 732.977 203.779" fill="#0F227A"/>
<path d="M749.459 270.044H749.452H749.459ZM705.921 304.713L705.92 304.714L705.921 304.713ZM746.775 272.907L746.523 277.147C746.48 277.887 746.766 278.609 747.305 279.119C747.492 279.296 765.986 296.948 765.806 311.209C765.758 315.133 764.285 318.343 761.306 321.021C752.357 329.066 735.517 323.556 711.235 304.637C720.253 280.24 739.64 274.292 746.775 272.907ZM751.377 329.594C756.628 329.594 761.071 327.979 764.661 324.753C768.686 321.134 770.76 316.596 770.825 311.264C771.003 296.556 755.493 280.176 751.6 276.3L751.963 270.192C752.034 269.007 751.266 267.947 750.143 267.63C750.009 267.587 749.875 267.552 749.739 267.529C749.55 267.497 749.357 267.486 749.163 267.5C748.84 267.52 741.142 268.057 731.962 272.89C723.52 277.335 712.161 286.414 705.982 304.432C705.911 304.643 705.876 304.82 705.857 304.935C705.63 305.879 705.968 306.878 706.74 307.489C719.016 317.196 729.779 323.78 738.728 327.054C743.354 328.749 747.578 329.594 751.377 329.594" fill="#0F227A"/>
<path d="M756.548 238.496C756.861 238.496 757.179 238.437 757.487 238.312C758.772 237.794 759.392 236.332 758.874 235.049C758.641 234.473 753.1 220.883 745.308 213.977C744.271 213.06 742.686 213.155 741.766 214.192C740.847 215.229 740.942 216.815 741.98 217.733C748.881 223.85 754.168 236.797 754.222 236.927C754.617 237.903 755.556 238.496 756.548 238.496" fill="#0F227A"/>
<path d="M748.383 227.621H748.376H748.383ZM755.453 233.524C755.125 233.873 754.92 234.063 754.916 234.068C754.166 234.762 753.907 235.846 754.27 236.802C754.383 237.103 765.466 267.047 749.167 274.623C741.081 278.383 723.711 265.298 712.858 247.49C723.496 231.601 739.533 229.773 748.281 230.129C750.046 230.2 751.359 230.362 752.02 230.46C753.22 231.299 754.368 232.325 755.453 233.524V233.524ZM746.047 280.276C747.909 280.276 749.666 279.925 751.283 279.174C769.564 270.675 761.782 243.376 759.496 236.542C759.853 236.142 760.271 235.652 760.714 235.08C761.415 234.178 761.417 232.916 760.719 232.009C758.806 229.527 756.662 227.497 754.346 225.975C754.073 225.795 753.765 225.67 753.443 225.608C753.365 225.594 751.48 225.237 748.485 225.114C740.383 224.781 720.182 226.171 707.775 246.112C707.284 246.903 707.27 247.899 707.739 248.703C717.483 265.4 733.942 280.275 746.047 280.276" fill="#0F227A"/>
<path d="M652.64 215.847C663.697 215.847 689.705 202.765 691.479 194.261C692.538 189.185 692.173 185.033 691.752 182.638C697.807 179.915 717.311 171.346 729.294 168.366C730.638 168.031 731.457 166.671 731.123 165.326C730.788 163.981 729.424 163.163 728.083 163.496C713.368 167.155 688.835 178.444 687.799 178.922C686.64 179.456 686.068 180.774 686.467 181.985C686.478 182.02 687.93 186.697 686.566 193.235C686.141 195.276 680.784 199.924 671.694 204.519C663.498 208.661 655.121 211.288 651.77 210.774C644.308 209.619 639.509 203.609 639.461 203.549C638.789 202.695 637.644 202.368 636.624 202.743L618.769 209.297C617.468 209.775 616.801 211.216 617.277 212.516C617.755 213.817 619.196 214.487 620.498 214.008L636.76 208.039C638.971 210.308 644.001 214.648 651.003 215.733C651.502 215.81 652.049 215.847 652.64 215.847" fill="#0F227A"/>
<path d="M713.669 188.166C713.723 188.166 713.775 188.165 713.829 188.161C715.209 188.075 716.259 186.888 716.175 185.507C716.17 185.39 715.876 179.014 719.733 175.926C722.313 173.862 726.368 173.593 731.782 175.128C733.115 175.506 734.503 174.733 734.881 173.4C735.259 172.067 734.484 170.679 733.153 170.301C726.067 168.29 720.486 168.874 716.566 172.035C710.674 176.784 711.145 185.447 711.168 185.814C711.251 187.143 712.356 188.166 713.669 188.166Z" fill="#0F227A"/>
<path d="M541.843 166.632C548.114 166.632 554.699 163.954 557.071 162.669C558.289 162.009 558.742 160.486 558.082 159.267C557.422 158.05 555.899 157.596 554.68 158.256C551.503 159.978 542.805 163.036 537.662 160.909C535.914 160.187 534.834 158.959 534.262 157.043C533.834 155.609 533.979 154.367 534.719 153.132C537.253 148.909 545.715 146.382 548.763 145.764C550.12 145.489 550.998 144.167 550.724 142.81C550.452 141.452 549.129 140.566 547.772 140.846C546.431 141.115 534.548 143.676 530.42 150.544C528.962 152.97 528.628 155.714 529.454 158.479C530.45 161.813 532.625 164.256 535.745 165.546C537.623 166.324 539.716 166.632 541.843 166.632" fill="#0F227A"/>
<path fill-rule="evenodd" clip-rule="evenodd" d="M648.241 145.112C625.473 152.335 596.953 156.66 579.421 148.028C561.891 139.397 535.075 117.618 521.565 136.476C505.499 158.901 554.514 212.879 621.865 215.54C621.865 215.54 729.806 352.641 762.941 322.852C780.529 307.04 748.989 277.266 748.989 277.266L753.256 204.35C753.256 204.35 771.352 203.042 771.412 185.29C771.494 160.945 740.689 115.782 648.241 145.112" fill="#EA5656"/>
<path d="M702.88 135.833C725.958 135.833 741.142 142.388 750.822 149.498C765.807 160.504 771.11 175.203 771.077 185.289C771.018 202.531 753.409 204.002 753.232 204.014L752.938 204.036L752.921 204.33L748.643 277.404L748.758 277.511C748.951 277.693 768.123 295.973 767.938 311.194C767.883 315.698 766.125 319.538 762.716 322.603C759.196 325.768 754.612 327.136 749.104 326.66C707.405 323.073 622.976 216.408 622.128 215.332L622.032 215.211L621.878 215.204C593.66 214.089 571.78 204.235 558.395 196.163C541.78 186.147 528.699 173.137 522.505 160.469C517.87 150.991 517.633 142.541 521.837 136.671C532.588 121.665 552.412 133.11 568.342 142.305C572.235 144.552 575.912 146.675 579.274 148.33C600.47 158.765 634.636 149.78 648.343 145.432C670.16 138.511 688.133 135.833 702.88 135.833ZM751.196 327.422C755.952 327.422 759.97 325.974 763.165 323.102C766.72 319.906 768.551 315.902 768.609 311.202C768.789 296.309 750.938 278.684 749.332 277.131L753.574 204.653C755.939 204.376 771.691 201.892 771.748 185.292C771.783 175.041 766.407 160.112 751.218 148.956C735.228 137.212 704.364 126.956 648.139 144.793C634.511 149.116 600.548 158.057 579.569 147.727C576.229 146.083 572.56 143.966 568.677 141.724C552.512 132.392 532.396 120.779 521.292 136.28C516.937 142.36 517.153 151.054 521.902 160.764C528.151 173.545 541.327 186.657 558.049 196.739C571.476 204.835 593.411 214.718 621.697 215.869C623.283 217.873 644.036 243.959 669.355 270.135C704.597 306.569 731.408 325.811 749.046 327.327C749.778 327.391 750.495 327.422 751.196 327.422" fill="#0F227A"/>
<path d="M702.887 137.999C725.384 137.999 740.142 144.349 749.535 151.249C763.88 161.785 768.934 176.167 768.903 185.281C768.852 200.442 753.713 201.798 753.069 201.847C751.819 201.945 750.825 202.951 750.752 204.202L746.484 277.12C746.439 277.86 746.727 278.581 747.265 279.09C747.452 279.267 765.943 296.914 765.765 311.173C765.715 315.098 764.244 318.308 761.263 320.986C758.165 323.773 754.25 324.92 749.291 324.494C708.526 320.989 624.679 215.058 623.836 213.988C623.382 213.41 622.697 213.061 621.963 213.033C576.432 211.233 536.631 184.408 524.457 159.514C520.191 150.789 519.887 143.125 523.605 137.936C533.209 124.532 551.296 134.973 567.255 144.187C571.18 146.453 574.888 148.593 578.314 150.279C600.218 161.062 635.043 151.931 648.999 147.503C670.612 140.647 688.363 137.999 702.887 137.999V137.999ZM751.215 329.596C756.511 329.596 761.011 327.961 764.618 324.718C768.643 321.099 770.717 316.561 770.782 311.228C770.961 296.519 755.45 280.143 751.56 276.27L755.64 206.569C762.955 205.245 773.872 199.648 773.922 185.298C773.958 174.513 768.352 158.843 752.506 147.205C736.109 135.16 704.578 124.607 647.482 142.721C619.623 151.559 594.595 152.701 580.529 145.778C577.254 144.164 573.615 142.065 569.764 139.84C561.562 135.106 552.267 129.74 543.608 127.545C533.088 124.881 524.986 127.392 519.526 135.014C514.684 141.773 514.834 151.258 519.949 161.719C526.378 174.865 539.856 188.307 556.927 198.6C570.413 206.731 592.346 216.638 620.61 217.996C629.498 229.178 707.546 325.94 748.86 329.494C749.661 329.562 750.447 329.596 751.215 329.596" fill="#0F227A"/>
<path fill-rule="evenodd" clip-rule="evenodd" d="M740.359 199.466C740.359 199.466 755.601 198.055 761.257 212.632C766.914 227.209 756.507 235.921 756.507 235.921C756.507 235.921 768.758 268.235 750.125 276.899C731.491 285.56 685.519 228.465 707.927 208.372L740.359 199.466" fill="#EA5656"/>
<path d="M745.788 278.142C747.387 278.142 748.889 277.842 750.265 277.202C768.16 268.884 757.924 238.879 756.899 236.018C758.261 234.754 766.833 226.074 761.569 212.51C755.888 197.867 740.481 199.12 740.328 199.132L740.39 199.8C740.539 199.788 755.447 198.591 760.944 212.753C766.451 226.942 756.393 235.578 756.291 235.664L756.108 235.817L756.193 236.04C756.313 236.361 768.119 268.163 749.983 276.594C740.197 281.146 722.904 266.928 712.497 251.148C703.196 237.045 697.17 218.469 708.151 208.622L707.703 208.122C696.404 218.254 702.48 237.182 711.936 251.517C721.28 265.686 735.491 278.141 745.788 278.142" fill="#0F227A"/>
<path d="M745.812 280.311C747.708 280.313 749.509 279.951 751.182 279.173C769.404 270.703 761.726 243.562 759.409 236.616C763.369 232.41 768.08 223.281 763.595 211.723C758.579 198.797 746.054 196.416 740.128 196.968C738.748 197.096 737.733 198.318 737.86 199.698C737.988 201.076 739.212 202.093 740.583 201.966C741.154 201.916 754.042 200.975 758.918 213.539C763.823 226.18 755.254 233.692 754.886 234.004C754.081 234.693 753.784 235.819 754.16 236.81C754.274 237.111 765.364 267.047 749.066 274.623C741.399 278.187 725.481 266.889 714.31 249.952C705.508 236.605 699.649 219.166 709.602 210.241C710.635 209.315 710.72 207.729 709.795 206.698C708.87 205.666 707.284 205.578 706.253 206.505C693.924 217.557 700.168 237.622 710.122 252.713C719.678 267.204 734.409 280.311 745.812 280.311Z" fill="#0F227A"/>
<path d="M621.902 218.124C622.399 218.124 622.902 217.976 623.34 217.669C624.474 216.873 624.75 215.309 623.953 214.174C623.81 213.969 609.531 193.598 605.134 185.626C604.464 184.414 602.939 183.971 601.726 184.642C600.512 185.311 600.07 186.837 600.74 188.051C605.267 196.257 619.252 216.211 619.845 217.055C620.334 217.752 621.111 218.124 621.902 218.124" fill="#0F227A"/>
<path d="M727.774 159.259C730.572 159.259 733.565 159.741 736.617 160.733C744.679 163.354 754.079 170.338 754.038 181.397C754.019 186.668 752.526 190.78 749.599 193.617C743.958 199.085 734.194 198.819 730.986 198.727C730.443 198.714 730.037 198.706 729.795 198.715C727.662 198.8 723.321 197.829 720.091 194.801C717.583 192.449 716.266 189.325 716.174 185.515C716.156 184.8 715.837 184.129 715.295 183.666C714.372 182.871 706.558 175.65 713.912 165.45C716.825 161.41 721.866 159.259 727.774 159.259V159.259ZM732.977 203.779C737.859 203.779 746.996 203.128 753.093 197.219C757.026 193.406 759.032 188.089 759.056 181.415C759.098 170.091 750.899 160.098 738.168 155.962C726.554 152.187 715.435 154.759 709.841 162.515C702.168 173.157 706.999 182.562 711.212 186.726C711.561 191.395 713.432 195.434 716.66 198.46C720.758 202.307 726.315 203.873 729.996 203.73C730.171 203.723 730.459 203.735 730.847 203.744C731.402 203.761 732.124 203.779 732.977 203.779" fill="#0F227A"/>
<path d="M749.459 270.044H749.452H749.459ZM705.921 304.713L705.92 304.714L705.921 304.713ZM746.775 272.907L746.523 277.147C746.48 277.887 746.766 278.609 747.305 279.119C747.492 279.296 765.986 296.948 765.806 311.209C765.758 315.133 764.285 318.343 761.306 321.021C752.357 329.066 735.517 323.556 711.235 304.637C720.253 280.24 739.64 274.292 746.775 272.907ZM751.377 329.594C756.628 329.594 761.071 327.979 764.661 324.753C768.686 321.134 770.76 316.596 770.825 311.264C771.003 296.556 755.493 280.176 751.6 276.3L751.963 270.192C752.034 269.007 751.266 267.947 750.143 267.63C750.009 267.587 749.875 267.552 749.739 267.529C749.55 267.497 749.357 267.486 749.163 267.5C748.84 267.52 741.142 268.057 731.962 272.89C723.52 277.335 712.161 286.414 705.982 304.432C705.911 304.643 705.876 304.82 705.857 304.935C705.63 305.879 705.968 306.878 706.74 307.489C719.016 317.196 729.779 323.78 738.728 327.054C743.354 328.749 747.578 329.594 751.377 329.594" fill="#0F227A"/>
<path d="M756.548 238.496C756.861 238.496 757.179 238.437 757.487 238.312C758.772 237.794 759.392 236.332 758.874 235.049C758.641 234.473 753.1 220.883 745.308 213.977C744.271 213.06 742.686 213.155 741.766 214.192C740.847 215.229 740.942 216.815 741.98 217.733C748.881 223.85 754.168 236.797 754.222 236.927C754.617 237.903 755.556 238.496 756.548 238.496" fill="#0F227A"/>
<path d="M748.383 227.621H748.376H748.383ZM755.453 233.524C755.125 233.873 754.92 234.063 754.916 234.068C754.166 234.762 753.907 235.846 754.27 236.802C754.383 237.103 765.466 267.047 749.167 274.623C741.081 278.383 723.711 265.298 712.858 247.49C723.496 231.601 739.533 229.773 748.281 230.129C750.046 230.2 751.359 230.362 752.02 230.46C753.22 231.299 754.368 232.325 755.453 233.524V233.524ZM746.047 280.276C747.909 280.276 749.666 279.925 751.283 279.174C769.564 270.675 761.782 243.376 759.496 236.542C759.853 236.142 760.271 235.652 760.714 235.08C761.415 234.178 761.417 232.916 760.719 232.009C758.806 229.527 756.662 227.497 754.346 225.975C754.073 225.795 753.765 225.67 753.443 225.608C753.365 225.594 751.48 225.237 748.485 225.114C740.383 224.781 720.182 226.171 707.775 246.112C707.284 246.903 707.27 247.899 707.739 248.703C717.483 265.4 733.942 280.275 746.047 280.276" fill="#0F227A"/>
<path d="M652.64 215.847C663.697 215.847 689.705 202.765 691.479 194.261C692.538 189.185 692.173 185.033 691.752 182.638C697.807 179.915 717.311 171.346 729.294 168.366C730.638 168.031 731.457 166.671 731.123 165.326C730.788 163.981 729.424 163.163 728.083 163.496C713.368 167.155 688.835 178.444 687.799 178.922C686.64 179.456 686.068 180.774 686.467 181.985C686.478 182.02 687.93 186.697 686.566 193.235C686.141 195.276 680.784 199.924 671.694 204.519C663.498 208.661 655.121 211.288 651.77 210.774C644.308 209.619 639.509 203.609 639.461 203.549C638.789 202.695 637.644 202.368 636.624 202.743L618.769 209.297C617.468 209.775 616.801 211.216 617.277 212.516C617.755 213.817 619.196 214.487 620.498 214.008L636.76 208.039C638.971 210.308 644.001 214.648 651.003 215.733C651.502 215.81 652.049 215.847 652.64 215.847" fill="#0F227A"/>
<path d="M713.669 188.166C713.723 188.166 713.775 188.165 713.829 188.161C715.209 188.075 716.259 186.888 716.175 185.507C716.17 185.39 715.876 179.014 719.733 175.926C722.313 173.862 726.368 173.593 731.782 175.128C733.115 175.506 734.503 174.733 734.881 173.4C735.259 172.067 734.484 170.679 733.153 170.301C726.067 168.29 720.486 168.874 716.566 172.035C710.674 176.784 711.145 185.447 711.168 185.814C711.251 187.143 712.356 188.166 713.669 188.166Z" fill="#0F227A"/>
<path d="M541.843 166.632C548.114 166.632 554.699 163.954 557.071 162.669C558.289 162.009 558.742 160.486 558.082 159.267C557.422 158.05 555.899 157.596 554.68 158.256C551.503 159.978 542.805 163.036 537.662 160.909C535.914 160.187 534.834 158.959 534.262 157.043C533.834 155.609 533.979 154.367 534.719 153.132C537.253 148.909 545.715 146.382 548.763 145.764C550.12 145.489 550.998 144.167 550.724 142.81C550.452 141.452 549.129 140.566 547.772 140.846C546.431 141.115 534.548 143.676 530.42 150.544C528.962 152.97 528.628 155.714 529.454 158.479C530.45 161.813 532.625 164.256 535.745 165.546C537.623 166.324 539.716 166.632 541.843 166.632" fill="#0F227A"/>
<path fill-rule="evenodd" clip-rule="evenodd" d="M648.241 145.112C625.473 152.335 596.953 156.66 579.421 148.028C561.891 139.397 535.075 117.618 521.565 136.476C505.499 158.901 554.514 212.879 621.865 215.54C621.865 215.54 729.806 352.641 762.941 322.852C780.529 307.04 748.989 277.266 748.989 277.266L753.256 204.35C753.256 204.35 771.352 203.042 771.412 185.29C771.494 160.945 740.689 115.782 648.241 145.112" fill="#DB6363"/>
<path d="M575.62 153.783C575.62 153.783 572.935 191.373 538.701 184.661L523.262 162.51L518.763 149.953L519.47 140.536L525.444 132.399L534.002 130.29C534.002 130.29 554.14 136.331 575.62 153.783" fill="#F1C0A5"/>
<path d="M707.061 301.504C708.353 298.236 709.819 295.287 711.401 292.629C683.112 270.745 651.633 237.013 629.761 211.099C628.095 211.696 626.056 212.465 623.528 213.441C623.645 213.64 623.762 213.839 623.876 214.037C625.476 216.062 668.096 269.7 707.061 301.504V301.504ZM620.799 209.21C622.108 208.513 623.967 207.577 626.064 206.683C620.768 200.306 616.15 194.516 612.419 189.637C611.011 187.795 609.647 186.456 608.41 185.539C606.893 185.073 605.396 184.571 603.913 184.031C602.964 184.316 602.53 185.229 602.854 186.543C602.89 186.531 602.927 186.525 602.965 186.525C603.07 186.525 603.176 186.571 603.247 186.66L603.251 186.665L608.683 193.387C610.483 195.629 612.271 197.875 614.039 200.136C615.802 202.402 617.579 204.656 619.24 206.991C619.765 207.726 620.286 208.465 620.799 209.21" fill="white"/>
<path d="M755.779 201.376C760.304 200.271 768.864 196.675 768.903 185.281C768.919 180.353 767.449 173.885 763.829 167.317C764.406 173.166 763.944 180.526 758.941 184.022C758.46 189.486 756.498 193.916 753.093 197.219C752.484 197.808 751.847 198.345 751.186 198.834C752.168 199.236 753.126 199.706 754.048 200.251C754.642 200.598 755.219 200.973 755.779 201.376" fill="white"/>
<path fill-rule="evenodd" clip-rule="evenodd" d="M749.321 270.004C749.368 270.012 749.411 270.034 749.458 270.043L749.027 277.295C749.027 277.295 780.571 307.075 762.983 322.887C751.35 333.345 730.462 323.048 708.296 305.521C708.327 305.428 708.324 305.338 708.355 305.247C719.8 271.874 749.321 270.004 749.321 270.004" fill="#7F71B8"/>
<path d="M718.726 298.109C720.615 292.582 726.053 287.409 731.638 283.308C730.557 282.582 729.517 281.811 728.507 280.996C723.891 284.385 719.242 289.111 715.414 295.704C716.524 296.526 717.629 297.329 718.726 298.109Z" fill="#A1F0F4"/>
<path d="M751.243 324.58C755.292 324.58 758.584 323.396 761.263 320.986C763.784 318.72 765.228 316.071 765.641 312.933C763.05 314.349 760.095 315.011 756.834 315.011C746.552 315.011 733.232 308.426 718.726 298.109C718.319 299.298 718.078 300.504 718.033 301.72C717.911 305.106 720.803 310.069 726.952 315.652C733.773 319.81 739.783 322.523 744.965 323.784C746.454 324.134 747.897 324.373 749.291 324.494C749.959 324.552 750.61 324.58 751.243 324.58" fill="#7F71B8"/>
<path d="M726.952 315.653C720.803 310.069 717.911 305.106 718.033 301.72C718.078 300.504 718.319 299.298 718.726 298.109C717.629 297.329 716.524 296.526 715.414 295.704C713.869 298.367 712.457 301.333 711.235 304.637C716.879 309.034 722.119 312.706 726.952 315.653" fill="#84C7DC"/>
<path d="M653.145 217.764C663.01 217.764 690.19 203.193 692.653 195.817C694.68 189.745 692.044 186.152 692.614 183.266C693.065 180.986 698.202 177.575 705.794 174.299C705.786 173.862 705.795 173.417 705.823 172.966C698.982 175.031 693.161 177.758 690.136 182.097C688.976 183.761 689.229 184.418 689.842 186.007C690.499 187.711 691.397 190.044 690.558 194.069C688.878 202.116 663.083 214.907 652.629 214.906C652.094 214.906 651.597 214.872 651.147 214.803C646.287 214.051 644.509 211.82 643.082 210.026C641.778 208.392 640.838 207.211 637.558 207.003C637.369 206.991 637.175 206.985 636.977 206.985C634.374 206.985 631.109 208.006 628.169 209.206C628.694 209.833 629.224 210.462 629.761 211.099C633.664 209.698 635.512 209.237 636.793 209.237C637.541 209.237 638.095 209.395 638.751 209.615C642.782 210.967 642.426 216.133 651.937 217.676C652.303 217.736 652.707 217.764 653.145 217.764" fill="#F5E6D6"/>
<path d="M623.528 213.441C626.056 212.465 628.095 211.696 629.761 211.099C629.224 210.462 628.694 209.833 628.169 209.206C625.978 210.1 623.967 211.095 622.545 211.841C622.88 212.37 623.208 212.903 623.528 213.441Z" fill="#E3D9D3"/>
<path d="M523.26 156.84C522.712 149.425 524.168 138.405 536.287 133.799C535.887 133.075 535.506 132.331 535.146 131.569C530.658 131.782 526.692 133.627 523.605 137.936C520.272 142.588 520.17 149.229 523.26 156.84Z" fill="#FEFEFE"/>
<path d="M702.887 137.999C725.384 137.999 740.142 144.349 749.535 151.249C763.88 161.785 768.934 176.167 768.903 185.281C768.852 200.442 753.713 201.798 753.069 201.847C751.819 201.945 750.825 202.951 750.752 204.202L746.484 277.12C746.439 277.86 746.727 278.581 747.265 279.09C747.452 279.267 765.943 296.914 765.765 311.173C765.715 315.098 764.244 318.308 761.263 320.986C758.165 323.773 754.25 324.92 749.291 324.494C708.526 320.989 624.679 215.058 623.836 213.988C623.382 213.41 622.697 213.061 621.963 213.033C576.432 211.233 536.631 184.408 524.457 159.514C520.191 150.789 519.887 143.125 523.605 137.936C533.209 124.532 551.296 134.973 567.255 144.187C571.18 146.453 574.888 148.593 578.314 150.279C600.218 161.062 635.043 151.931 648.999 147.503C670.612 140.647 688.363 137.999 702.887 137.999V137.999ZM751.215 329.596C756.511 329.596 761.011 327.961 764.618 324.718C768.643 321.099 770.717 316.561 770.782 311.228C770.961 296.519 755.45 280.143 751.56 276.27L755.64 206.569C762.955 205.245 773.872 199.648 773.922 185.298C773.958 174.513 768.352 158.843 752.506 147.205C736.109 135.16 704.578 124.607 647.482 142.721C619.623 151.559 594.595 152.701 580.529 145.778C577.254 144.164 573.615 142.065 569.764 139.84C561.562 135.106 552.267 129.74 543.608 127.545C533.088 124.881 524.986 127.392 519.526 135.014C514.684 141.773 514.834 151.258 519.949 161.719C526.378 174.865 539.856 188.307 556.927 198.6C570.413 206.731 592.346 216.638 620.61 217.996C629.498 229.178 707.546 325.94 748.86 329.494C749.661 329.562 750.447 329.596 751.215 329.596" fill="#0F227A"/>
<path d="M623.954 214.174C622.532 211.683 620.902 209.321 619.24 206.991C617.579 204.656 615.802 202.402 614.039 200.136C612.271 197.875 610.483 195.629 608.683 193.387L603.251 186.665L603.247 186.66C603.121 186.504 602.892 186.48 602.737 186.606C602.613 186.705 602.573 186.87 602.624 187.011C603.62 189.77 604.878 192.403 606.168 195.001C607.478 197.59 608.846 200.144 610.28 202.653C611.717 205.161 613.161 207.663 614.751 210.068C616.336 212.475 617.973 214.839 619.846 217.057C620.744 218.118 622.333 218.251 623.396 217.355C624.339 216.557 624.55 215.217 623.959 214.182L623.954 214.174Z" fill="#0F227A"/>
<path d="M749.459 270.044H749.452H749.459ZM705.921 304.713L705.92 304.714L705.921 304.713ZM746.775 272.907L746.523 277.147C746.48 277.887 746.766 278.609 747.305 279.119C747.492 279.296 765.986 296.948 765.806 311.209C765.758 315.133 764.285 318.343 761.306 321.021C752.357 329.066 735.517 323.556 711.235 304.637C720.253 280.24 739.64 274.292 746.775 272.907ZM751.377 329.594C756.628 329.594 761.071 327.979 764.661 324.753C768.686 321.134 770.76 316.596 770.825 311.264C771.003 296.556 755.493 280.176 751.6 276.3L751.963 270.192C752.034 269.007 751.266 267.947 750.143 267.63C750.009 267.587 749.875 267.552 749.739 267.529C749.55 267.497 749.357 267.486 749.163 267.5C748.84 267.52 741.142 268.057 731.962 272.89C723.52 277.335 712.161 286.414 705.982 304.432C705.911 304.643 705.876 304.82 705.857 304.935C705.63 305.879 705.968 306.878 706.74 307.489C719.016 317.196 729.779 323.78 738.728 327.054C743.354 328.749 747.578 329.594 751.377 329.594" fill="#0F227A"/>
<path d="M652.629 214.906C663.083 214.907 688.878 202.116 690.557 194.069C691.397 190.044 690.498 187.711 689.842 186.007C689.228 184.418 688.976 183.761 690.136 182.097C695.158 174.894 707.885 172.134 720.194 169.468C723.151 168.826 726.208 168.163 729.066 167.453C729.906 167.245 730.419 166.393 730.21 165.553C730.001 164.713 729.149 164.197 728.31 164.411C725.497 165.109 722.599 165.737 719.53 166.401C706.63 169.198 693.289 172.09 687.562 180.303C685.449 183.333 686.228 185.354 686.915 187.135C687.517 188.695 688.138 190.309 687.487 193.427C686.228 199.467 659.742 212.971 651.626 211.704C647.976 211.139 646.844 209.719 645.534 208.073C644.076 206.243 642.423 204.17 637.757 203.873C630.573 203.401 619.311 210.021 618.834 210.303C618.089 210.743 617.842 211.704 618.283 212.451C618.723 213.194 619.686 213.443 620.431 213.002C620.539 212.938 631.334 206.605 637.558 207.003C640.838 207.211 641.778 208.392 643.081 210.026C644.508 211.82 646.287 214.051 651.147 214.803C651.597 214.872 652.093 214.906 652.629 214.906" fill="#0F227A"/>
<path d="M534.13 155.9C536.972 153.534 542.444 149.91 550.987 147.946C549.371 147.247 547.788 146.346 546.264 145.261C545.131 146.029 544.005 146.691 542.896 147.327C541.101 148.317 539.353 149.272 537.847 150.368C536.339 151.453 535.12 152.676 534.536 153.911C534.246 154.532 534.109 155.166 534.126 155.867C534.127 155.878 534.128 155.888 534.13 155.9" fill="#FEFEFE"/>
<path d="M553.412 163.527C557.36 160.912 558.613 157.773 559.003 155.864C558.795 155.518 558.546 155.21 558.261 154.946C557.462 154.201 556.402 153.79 555.309 153.79C554.715 153.79 554.113 153.912 553.537 154.166C547.13 156.997 542.571 157.962 539.333 157.962C537.044 157.962 535.416 157.48 534.26 156.835L534.284 156.954C534.391 157.33 534.51 157.744 534.685 158.081C535.315 159.514 536.449 160.449 537.995 160.931C539.138 161.292 540.457 161.398 541.837 161.398C542.319 161.398 542.807 161.384 543.299 161.366C545.213 161.285 547.206 161.039 549.253 160.794C551.312 160.549 553.402 160.284 555.677 160.096L555.697 160.094C555.709 160.093 555.721 160.093 555.733 160.093C555.836 160.093 555.938 160.128 556.023 160.199C556.212 160.359 556.235 160.642 556.075 160.831C555.242 161.814 554.285 162.634 553.255 163.335C553.307 163.4 553.36 163.463 553.412 163.527" fill="#CFD3E4"/>
<path d="M548.184 142.896C545.795 142.324 543.48 142.501 541.231 143.023C538.996 143.586 536.824 144.524 534.75 145.856C533.712 146.52 532.721 147.339 531.811 148.319C530.913 149.306 530.095 150.486 529.569 151.87C529.031 153.244 528.821 154.797 528.966 156.252C529.013 156.611 529.05 156.977 529.119 157.326L529.38 158.349C529.601 159 529.807 159.624 530.126 160.25C530.725 161.491 531.584 162.676 532.647 163.639C533.711 164.601 534.948 165.33 536.209 165.827C538.746 166.827 541.312 166.996 543.703 166.765C546.103 166.529 548.365 165.872 550.464 164.91C552.546 163.923 554.525 162.661 556.075 160.831C556.235 160.642 556.212 160.359 556.023 160.199C555.929 160.119 555.811 160.085 555.697 160.094L555.677 160.096C553.402 160.284 551.312 160.549 549.253 160.794C547.206 161.039 545.213 161.285 543.299 161.366C541.398 161.44 539.537 161.418 537.995 160.931C536.449 160.449 535.315 159.514 534.685 158.081C534.509 157.744 534.391 157.33 534.284 156.954L534.171 156.4C534.146 156.219 534.147 156.043 534.126 155.867C534.109 155.166 534.246 154.532 534.536 153.911C535.12 152.676 536.339 151.453 537.847 150.368C539.353 149.272 541.101 148.317 542.896 147.327C544.683 146.301 546.515 145.211 548.348 143.715L548.368 143.7C548.565 143.539 548.594 143.249 548.434 143.053C548.367 142.971 548.278 142.918 548.184 142.896" fill="#0F227A"/>
<path d="M635.841 189.637C671.905 189.637 703.117 169.147 718.794 139.168C715.303 138.626 711.56 138.256 707.554 138.092C690.874 161.419 662.726 176.772 630.873 176.772C609.829 176.772 590.404 170.072 574.833 158.798C574.434 160.662 573.842 162.911 572.972 165.302C581.893 173.416 592.375 179.829 603.913 184.031C604.119 183.969 604.35 183.937 604.603 183.937C605.588 183.937 606.905 184.425 608.41 185.539C617.085 188.204 626.295 189.637 635.841 189.637" fill="#DB6363"/>
<path d="M572.972 165.302C573.842 162.911 574.434 160.662 574.833 158.798C570.761 155.849 566.948 152.585 563.445 149.048C562.05 149.439 560.627 149.639 559.194 149.663C563.203 155.377 567.828 160.622 572.972 165.302Z" fill="#F1C0A5"/>
<path d="M608.41 185.539C606.905 184.425 605.588 183.937 604.603 183.937C604.35 183.937 604.12 183.969 603.913 184.031C605.396 184.571 606.893 185.073 608.41 185.539Z" fill="#9A8A90"/>
<path d="M718.794 139.167C719.127 138.53 719.453 137.889 719.773 137.244C716.397 136.634 712.83 136.183 709.061 135.915C708.571 136.646 708.066 137.375 707.554 138.092C711.56 138.256 715.302 138.626 718.794 139.167Z" fill="#0F227A"/>
<path fill-rule="evenodd" clip-rule="evenodd" d="M573.265 113.671C568.281 99.1516 555.857 90.2588 545.511 93.8098C535.166 97.3593 530.819 112.007 535.801 126.526C540.783 141.046 553.209 149.938 563.554 146.387C573.9 142.838 578.247 128.19 573.265 113.671Z" fill="#7F71B8"/>
<path d="M558.782 144.668C558.783 144.668 558.785 144.668 558.785 144.668C558.979 144.668 559.174 144.664 559.369 144.654C556.122 140.913 553.193 136.911 550.624 132.69C545.505 130.906 540.59 126.806 536.915 121.085C537.225 122.617 537.644 124.165 538.175 125.712C542.054 137.02 550.708 144.668 558.782 144.668Z" fill="#7F71B8"/>
<path d="M550.624 132.69C550.438 132.385 550.257 132.083 550.074 131.776C544.955 129.749 540.093 125.33 536.598 119.277C536.687 119.877 536.793 120.479 536.915 121.085C540.59 126.806 545.505 130.906 550.624 132.69" fill="#7F71B8"/>
<path d="M536.327 112.053C537.226 110.147 538.428 108.114 540.038 106.079C539.762 104.766 539.516 103.445 539.301 102.11C537.648 104.849 536.627 108.271 536.327 112.053Z" fill="#A1F0F4"/>
<path d="M570.891 114.486C575.417 127.673 571.76 140.919 562.74 144.015C561.454 144.457 560.127 144.668 558.785 144.668C550.71 144.669 542.056 137.019 538.175 125.712C533.65 112.525 537.306 99.2777 546.326 96.1819C555.347 93.0861 566.366 101.298 570.891 114.486ZM558.902 149.666C560.752 149.666 562.585 149.373 564.368 148.761C576.005 144.768 581.061 128.661 575.637 112.857C570.215 97.0518 556.337 87.4436 544.698 91.4362C533.061 95.4301 528.005 111.536 533.429 127.34C538.02 140.723 548.678 149.666 558.902 149.666" fill="#0F227A"/>
<path fill-rule="evenodd" clip-rule="evenodd" d="M721.001 88.758C721.001 41.5342 680.649 3.2515 630.873 3.2515C581.097 3.2515 540.745 41.5342 540.745 88.758C540.745 135.98 581.097 174.263 630.873 174.263C680.649 174.263 721.001 135.98 721.001 88.758" fill="#DB6363"/>
<path d="M544.571 74.373C545.833 70.8933 547.436 67.0121 549.453 62.9349C548.913 62.7081 548.376 62.4745 547.842 62.2341C546.442 66.1583 545.342 70.2126 544.571 74.373ZM685.017 23.546C671.751 13.641 655.403 7.28429 637.578 6.00086C637.635 6.97283 637.662 7.88708 637.662 8.77984C637.662 9.31147 637.654 9.84176 637.639 10.3707C656.622 10.8929 672.913 16.7623 685.017 23.546Z" fill="#F5E6D6"/>
<path fill-rule="evenodd" clip-rule="evenodd" d="M630.625 3.25131C632.056 3.25131 633.445 3.38558 634.859 3.44734C635.033 5.20333 635.153 6.97944 635.153 8.77974C635.153 40.1083 608.185 65.5044 574.919 65.5044C564.571 65.5044 554.828 63.0516 546.321 58.7221C559.15 26.3356 592.005 3.25131 630.625 3.25131" fill="#EA5656"/>
<path d="M634.553 3.76824C634.732 5.65579 634.817 7.25472 634.817 8.7798C634.817 39.8721 607.947 65.1688 574.92 65.1688C565.084 65.1688 555.349 62.8852 546.746 58.561C559.919 25.6658 593.585 3.587 630.624 3.587C631.547 3.587 632.472 3.64476 633.366 3.6998C633.762 3.72531 634.157 3.74944 634.553 3.76824V3.76824ZM574.92 65.8401C608.317 65.8401 635.488 40.2426 635.488 8.7798C635.488 7.15537 635.394 5.45038 635.193 3.41515L635.165 3.1252L634.873 3.11178C634.383 3.0903 633.895 3.0594 633.407 3.02986C632.503 2.97482 631.567 2.91575 630.624 2.91575C611.866 2.91575 593.882 8.32602 578.613 18.5626C563.695 28.5656 552.421 42.4108 546.009 58.5986L545.897 58.8832L546.169 59.0215C554.932 63.4813 564.874 65.8401 574.92 65.8401" fill="#0F227A"/>
<path d="M630.873 171.754C679.186 171.754 718.492 134.521 718.492 88.7565C718.492 88.3524 718.488 87.9443 718.483 87.5402C717.244 87.8732 715.979 88.0329 714.705 88.0329C714.622 88.0329 714.54 88.0329 714.457 88.0316C714.372 88.0329 714.289 88.0329 714.206 88.0329C714.187 88.0329 714.168 88.0329 714.151 88.0329C706.964 128.805 677.304 161.456 625.524 164.133C624.159 164.204 622.808 164.237 621.467 164.237C596.608 164.237 576.001 152.339 560.225 137.798C576.186 158.376 601.911 171.754 630.873 171.754" fill="#DB6363"/>
<path d="M630.873 5.76053C679.187 5.76053 718.492 42.9934 718.492 88.7566C718.492 134.521 679.187 171.754 630.873 171.754C582.56 171.754 543.254 134.521 543.254 88.7566C543.254 42.9934 582.56 5.76053 630.873 5.76053ZM630.873 176.772C681.954 176.772 723.509 137.288 723.509 88.7566C723.509 40.2252 681.954 0.742279 630.873 0.742279C579.793 0.742279 538.236 40.2252 538.236 88.7566C538.236 137.288 579.793 176.772 630.873 176.772Z" fill="#0F227A"/>
<path fill-rule="evenodd" clip-rule="evenodd" d="M689.112 80.7083C682.963 49.4254 648.16 26.5841 613.046 33.8926C577.931 41.2025 548.731 72.0559 555.521 106.155C562.656 141.992 601.295 159.188 636.409 151.88C671.522 144.571 695.258 111.993 689.112 80.7083Z" fill="#F1C0A5"/>
<path d="M620.389 151.01C625.567 151.01 630.781 150.489 635.898 149.423C662.263 143.936 682.296 123.321 686.672 100.114C684.825 101.803 682.88 103.238 680.851 104.289C679.091 108.062 676.908 111.732 674.316 115.251C664.226 128.944 649.3 138.435 632.288 141.976C626.817 143.115 621.34 143.665 615.952 143.665C595.68 143.665 576.703 135.877 564.391 122.397C568.476 129.213 574.156 135.094 581.27 139.801C592.335 147.122 606.239 151.01 620.389 151.01V151.01ZM684.081 95.6961C685.282 94.5294 686.442 93.2312 687.552 91.8525C687.638 88.311 687.346 84.7426 686.65 81.193C686.522 80.546 686.381 79.9016 686.228 79.2598C686.364 84.7708 685.637 90.2952 684.081 95.6961" fill="#F1C0A5"/>
<path d="M615.952 143.665C621.34 143.665 626.817 143.114 632.288 141.976C649.3 138.434 664.226 128.944 674.316 115.251C676.908 111.732 679.091 108.062 680.851 104.289C680.646 104.397 680.438 104.5 680.23 104.598C680.081 104.669 679.928 104.739 679.772 104.807C671.181 122.515 653.719 136.83 632.151 141.319C626.725 142.448 621.29 142.994 615.947 142.994C594.666 142.994 574.836 134.345 562.781 119.502C563.287 120.485 563.824 121.45 564.391 122.397C576.703 135.877 595.681 143.665 615.952 143.665ZM683.001 96.6988C683.365 96.3779 683.726 96.0409 684.081 95.6959C685.637 90.295 686.364 84.7707 686.228 79.2597C685.98 78.226 685.697 77.1976 685.38 76.1787C685.952 83.1355 685.087 90.0708 683.001 96.6988Z" fill="#F1C0A5"/>
<path d="M686.65 81.1931C692.55 111.223 669.309 142.469 635.898 149.423C616.806 153.397 596.384 149.802 581.27 139.801C568.844 131.58 560.79 119.775 557.981 105.666C551.161 71.4157 581.52 43.0178 613.557 36.3496C630.061 32.9128 647.697 36.3657 661.945 45.8169C674.919 54.425 683.923 67.3184 686.65 81.1931V81.1931ZM620.423 156.023C625.938 156.023 631.48 155.468 636.92 154.337C654.458 150.685 669.847 140.897 680.253 126.772C690.672 112.63 694.693 96.1002 691.573 80.2252C688.59 65.0442 678.802 50.9788 664.719 41.6363C649.362 31.4481 630.341 27.7307 612.536 31.4374C594.632 35.1641 577.907 44.9778 566.649 58.3625C554.55 72.7474 549.724 89.8952 553.06 106.644C556.137 122.096 564.935 135.01 578.502 143.986C590.38 151.845 605.288 156.023 620.423 156.023" fill="#0F227A"/>
<path fill-rule="evenodd" clip-rule="evenodd" d="M728.638 54.5348C723.656 40.0157 711.231 31.1243 700.886 34.6739C690.54 38.2235 686.193 52.8715 691.175 67.3906C696.157 81.9098 708.582 90.8025 718.928 87.2529C729.273 83.702 733.62 69.0553 728.638 54.5348Z" fill="#7F71B8"/>
<path d="M691.491 68.9331C691.414 68.5223 691.344 68.1102 691.283 67.7007C691.246 67.5973 691.21 67.494 691.175 67.3906C689.823 63.453 689.159 59.5074 689.113 55.7753C689.066 59.7464 689.727 63.982 691.177 68.2082C691.264 68.4646 691.398 68.6821 691.491 68.9331" fill="#F5E6D6"/>
<path d="M691.282 67.7009C691.151 66.835 691.053 65.9731 690.986 65.122C690.591 63.6318 690.304 62.1483 690.081 60.6743C690.337 61.1885 690.603 61.6946 690.878 62.1886C690.941 52.4381 695.263 44.2595 702.643 41.7276C704.177 41.2013 705.757 40.9489 707.352 40.9489C709.163 40.9489 710.994 41.2751 712.797 41.894C712.869 41.843 712.941 41.7947 713.015 41.7491C713.933 41.1637 714.931 40.8858 715.97 40.8858C718.051 40.8858 720.298 41.9988 722.404 43.9964C717.667 38.1861 711.533 34.7117 705.602 34.7117C705.346 34.7117 705.091 34.717 704.838 34.7305C703.498 34.7989 702.171 35.0513 700.879 35.4944C693.545 38.0115 689.228 46.1041 689.113 55.7755C689.159 59.5076 689.823 63.4533 691.175 67.3908C691.21 67.4942 691.246 67.5976 691.282 67.7009" fill="#A1F0F4"/>
<path fill-rule="evenodd" clip-rule="evenodd" d="M728.361 53.2837C724.629 43.8929 717.758 38.727 713.015 41.7489C708.271 44.7682 707.452 54.8303 711.184 64.2224C714.916 73.6132 721.787 78.7791 726.53 75.7585C731.274 72.7379 732.093 62.6758 728.361 53.2837" fill="white"/>
<path d="M726.098 82.5757C731.374 76.2619 732.841 65.3662 729.127 54.5389C728.56 52.889 727.871 51.3303 727.126 49.8348C727.176 50.1624 727.222 50.4886 727.262 50.8135C727.651 51.5988 728.02 52.4245 728.361 53.2837C730.046 57.5233 730.803 61.8985 730.691 65.7018C730.86 72.3324 729.081 78.3213 725.723 82.428C725.85 82.4777 725.972 82.526 726.098 82.5757Z" fill="#CFD3E4"/>
<path d="M723.431 85.1211C724.405 84.3894 725.295 83.5356 726.098 82.5757C725.971 82.526 725.849 82.4777 725.723 82.428C725.022 83.2859 724.25 84.0632 723.415 84.7465C723.421 84.8714 723.426 84.9949 723.431 85.1211" fill="#0CA9E4"/>
<path d="M714.705 88.033C715.979 88.033 717.244 87.8732 718.483 87.5402C718.482 87.4933 718.482 87.4449 718.48 87.3979C717.163 87.802 715.815 88.0088 714.457 88.0316C714.54 88.033 714.622 88.033 714.705 88.033Z" fill="#9A8A90"/>
<path d="M718.483 87.5403C718.799 87.4557 719.111 87.3604 719.423 87.253C720.882 86.7523 722.222 86.0313 723.432 85.1211C723.426 84.9949 723.421 84.8714 723.416 84.7465C722.081 85.8353 720.582 86.6851 718.928 87.253C718.779 87.304 718.631 87.3523 718.481 87.398C718.482 87.445 718.482 87.4933 718.483 87.5403" fill="#0F227A"/>
<path d="M714.457 88.0317C715.816 88.0089 717.164 87.8022 718.481 87.3981C718.631 87.3524 718.779 87.3041 718.928 87.2531C720.582 86.6852 722.081 85.8354 723.416 84.7466C724.251 84.0633 725.023 83.286 725.723 82.4281C729.081 78.3214 730.86 72.3325 730.691 65.7019C730.555 70.3242 729.133 74.1006 726.53 75.7586C725.612 76.3426 724.614 76.6205 723.575 76.6205C721.925 76.6205 720.171 75.9197 718.463 74.6336C717.639 75.1209 716.762 75.5277 715.836 75.8458C714.303 76.3721 712.724 76.6245 711.13 76.6245C708.577 76.6245 705.986 75.9761 703.486 74.7745C702.644 76.6178 701.557 78.8759 700.256 81.326C704.509 85.4998 709.545 87.9512 714.457 88.0317V88.0317ZM696.725 77.2085C697.707 75.2793 698.532 73.5247 699.182 72.0868C696.007 69.6234 693.136 66.2483 690.879 62.1886C690.872 63.1525 690.907 64.1312 690.986 65.122C691.184 65.8724 691.41 66.6242 691.668 67.3774C692.929 71.0505 694.666 74.3651 696.725 77.2085Z" fill="#7F71B8"/>
<path d="M690.986 65.1218C690.907 64.1311 690.872 63.1524 690.878 62.1885C690.603 61.6944 690.337 61.1883 690.081 60.6741C690.304 62.1482 690.591 63.6317 690.986 65.1218Z" fill="#84C7DC"/>
<path d="M723.575 76.6204C724.614 76.6204 725.612 76.3424 726.53 75.7585C729.133 74.1005 730.555 70.324 730.69 65.7018C730.803 61.8985 730.046 57.5233 728.361 53.2837C728.02 52.4245 727.651 51.5988 727.261 50.8135C728.554 61.2192 725.221 70.6409 718.463 74.6335C720.17 75.9196 721.925 76.6204 723.575 76.6204Z" fill="#CFD3E4"/>
<path d="M726.266 55.3498C730.79 68.5372 727.133 81.785 718.114 84.8794C716.828 85.3211 715.501 85.5319 714.159 85.5319C706.084 85.5332 697.429 77.8837 693.547 66.5771C691.307 60.0432 691.001 53.3159 692.687 47.6331C694.285 42.2524 697.485 38.4934 701.699 37.0462C705.916 35.6003 710.749 36.6031 715.312 39.8681C720.133 43.3183 724.024 48.8172 726.266 55.3498ZM714.276 90.53C716.126 90.53 717.96 90.2374 719.742 89.6252C731.379 85.6326 736.434 69.5253 731.011 53.7214C728.434 46.2101 723.895 39.8399 718.232 35.7882C712.313 31.5513 705.862 30.3122 700.071 32.3004C694.279 34.2887 689.948 39.225 687.877 46.2047C685.895 52.8796 686.224 60.693 688.802 68.2043C693.394 81.5876 704.053 90.53 714.276 90.53Z" fill="#0F227A"/>
<path fill-rule="evenodd" clip-rule="evenodd" d="M630.625 3.25131C632.056 3.25131 633.445 3.38558 634.859 3.44734C635.033 5.20333 635.153 6.97944 635.153 8.77974C635.153 28.7857 624.155 46.3738 607.543 56.472C598.141 62.1871 586.941 65.5044 574.919 65.5044C564.571 65.5044 554.828 63.0516 546.321 58.7221C559.15 26.3356 592.005 3.25131 630.625 3.25131" fill="#7F71B8"/>
<path d="M553.735 55.272C558.433 47.4049 564.662 39.2895 573.057 32.1246C573.412 32.377 573.933 32.4992 574.58 32.4992C576.655 32.4992 580.034 31.2479 583.485 29.0462C588.243 26.0108 591.316 22.327 590.6 20.618C594.38 18.7358 598.343 16.9825 602.694 15.5608C613.169 12.1401 623.187 10.6016 632.619 10.3922C632.636 9.85519 632.644 9.31954 632.644 8.77986C632.644 7.84548 632.61 6.88021 632.54 5.82769C631.889 5.7901 631.258 5.76057 630.624 5.76057C596.317 5.76057 564.982 25.1422 550.892 54.5269C551.847 54.79 552.793 55.0384 553.735 55.272" fill="#7F71B8"/>
<path d="M726.029 54.21C729.56 63.096 728.418 71.5833 725.182 73.6427C724.352 74.1703 723.403 74.2522 722.285 73.8911C719.107 72.8641 715.665 68.705 713.516 63.2961C709.984 54.4114 711.127 45.9241 714.363 43.8647C715.194 43.3344 716.143 43.2526 717.261 43.615C720.438 44.642 723.88 48.8011 726.029 54.2114V54.21ZM723.586 79.1335C725.112 79.1335 726.564 78.712 727.878 77.8743C733.676 74.1837 734.913 62.9739 730.693 52.3574C727.93 45.4073 723.487 40.3541 718.805 38.8411C716.246 38.0128 713.779 38.2866 711.667 39.6318C705.869 43.3237 704.632 54.5322 708.853 65.1487C711.615 72.0989 716.058 77.152 720.74 78.665C721.706 78.9778 722.66 79.1335 723.586 79.1335" fill="#0F227A"/>
<path d="M632.54 5.8276C632.61 6.88012 632.644 7.84538 632.644 8.77976C632.644 38.6746 606.748 62.9953 574.92 62.9953C566.11 62.9953 557.386 61.0983 549.543 57.4951C562.898 26.4551 595.175 5.76048 630.625 5.76048C631.258 5.76048 631.889 5.79001 632.54 5.8276ZM574.92 68.0122C609.517 68.0122 637.662 41.4401 637.662 8.77976C637.662 7.0815 637.565 5.30938 637.356 3.20031C637.232 1.9585 636.216 0.995968 634.97 0.940926C634.492 0.919446 634.017 0.889909 633.542 0.860374C632.605 0.802647 631.634 0.742226 630.625 0.742226C611.434 0.742226 593.031 6.28004 577.404 16.7583C562.118 27.0069 550.565 41.1985 543.989 57.7985C543.513 59.0027 544.029 60.3707 545.184 60.9587C554.251 65.5729 564.533 68.0122 574.92 68.0122Z" fill="#0F227A"/>
<path fill-rule="evenodd" clip-rule="evenodd" d="M638.168 74.2589C636.227 68.266 631.388 64.4654 627.359 65.7703C623.331 67.0752 621.639 72.9903 623.579 78.9832C625.52 84.9748 630.359 88.7754 634.387 87.4705C638.416 86.1669 640.108 80.2505 638.168 74.2589" fill="#0F227A"/>
<path fill-rule="evenodd" clip-rule="evenodd" d="M631.284 73.4911C630.655 71.5498 629.089 70.3188 627.784 70.7417C626.479 71.1645 625.931 73.0803 626.559 75.0202C627.188 76.9628 628.756 78.1925 630.061 77.771C631.364 77.3481 631.912 75.431 631.284 73.4911" fill="#FDFEFD"/>
<path fill-rule="evenodd" clip-rule="evenodd" d="M629.536 94.8193C623.586 91.9047 598.966 101.157 597.137 108.178C595.309 115.201 608.762 131.22 626.393 124.523C641.854 118.65 637.658 98.7984 629.536 94.8193Z" fill="#0F227A"/>
<path fill-rule="evenodd" clip-rule="evenodd" d="M633.268 102.353C634.058 102.353 634.814 102.505 635.581 102.608C638.312 110.145 637.011 120.544 626.485 124.542C622.168 126.181 618.104 126.435 614.45 125.816C614.373 125.039 614.235 124.283 614.235 123.483C614.235 111.811 622.756 102.353 633.268 102.353Z" fill="#D7557A"/>
<path d="M635.332 102.912C638.019 110.56 636.363 120.432 626.367 124.228C622.505 125.695 618.601 126.129 614.757 125.526C614.74 125.375 614.721 125.224 614.702 125.073C614.635 124.532 614.571 124.02 614.571 123.483C614.571 112.017 622.957 102.689 633.268 102.689C633.844 102.689 634.397 102.772 634.982 102.861C635.099 102.878 635.216 102.896 635.332 102.912V102.912ZM618.128 126.461C620.953 126.461 623.791 125.925 626.605 124.856C637.11 120.866 638.784 110.467 635.896 102.494L635.826 102.302L635.625 102.276C635.444 102.251 635.263 102.225 635.083 102.196C634.499 102.109 633.895 102.018 633.268 102.018C622.588 102.018 613.899 111.648 613.899 123.483C613.899 124.062 613.969 124.617 614.036 125.156C614.064 125.387 614.093 125.618 614.117 125.848L614.142 126.104L614.395 126.147C615.634 126.356 616.88 126.461 618.128 126.461" fill="#0F227A"/>
<path d="M628.432 97.0721C631.915 98.7784 634.541 104.641 634.286 110.14C634.133 113.448 632.789 119.411 625.502 122.178C614.951 126.184 607.391 120.857 604.631 118.38C600.796 114.939 599.044 110.813 599.566 108.811C599.959 107.298 603.319 104.323 609.765 101.365C618.111 97.5353 626.302 96.0276 628.432 97.0721V97.0721ZM617.998 128.605C621.082 128.605 624.217 128.033 627.284 126.869C634.562 124.105 638.941 118.092 639.298 110.372C639.649 102.811 635.926 95.1563 630.639 92.5653C625.386 89.9931 613.32 94.2126 607.672 96.8049C602.405 99.2214 595.882 103.048 594.709 107.546C593.615 111.751 596.254 117.606 601.279 122.115C606.038 126.384 611.92 128.605 617.998 128.605" fill="#0F227A"/>
<path d="M655.13 108.628C655.148 108.628 655.165 108.628 655.183 108.628C655.89 108.614 672.596 108.23 680.23 104.598C694.655 97.7367 705.077 71.1619 705.513 70.0342C706.014 68.7427 705.372 67.2902 704.08 66.7894C702.786 66.2913 701.335 66.9304 700.834 68.2232C700.734 68.4796 690.698 94.0636 678.075 100.067C671.413 103.237 655.242 103.607 655.079 103.61C653.694 103.64 652.594 104.786 652.622 106.172C652.651 107.538 653.768 108.628 655.13 108.628Z" fill="#0F227A"/>
<path fill-rule="evenodd" clip-rule="evenodd" d="M654.587 98.1716L642.367 99.5637C637.904 100.073 634.698 104.104 635.206 108.568C635.715 113.033 639.747 116.239 644.211 115.73L656.43 114.338C660.894 113.828 664.1 109.796 663.591 105.332C663.082 100.869 659.051 97.6627 654.587 98.1716Z" fill="#ECB35B"/>
<path d="M655.513 98.4534C659.423 98.4534 662.804 101.396 663.258 105.37C663.744 109.643 660.664 113.516 656.391 114.004L644.173 115.396C642.102 115.635 640.065 115.048 638.434 113.751C636.804 112.454 635.776 110.6 635.54 108.53C635.305 106.46 635.889 104.422 637.185 102.792C638.481 101.161 640.336 100.134 642.405 99.8979L654.624 98.5044C654.923 98.4709 655.219 98.4534 655.513 98.4534V98.4534ZM643.272 116.119C643.597 116.119 643.922 116.101 644.25 116.063L656.468 114.671C661.109 114.142 664.453 109.934 663.924 105.295C663.395 100.654 659.19 97.3136 654.549 97.8372L642.33 99.2307C640.081 99.4872 638.067 100.603 636.659 102.375C635.251 104.144 634.617 106.358 634.874 108.607C635.129 110.854 636.246 112.868 638.016 114.276C639.529 115.48 641.367 116.119 643.272 116.119" fill="#0F227A"/>
<path fill-rule="evenodd" clip-rule="evenodd" d="M654.587 98.1716L642.367 99.5637C637.904 100.073 634.698 104.104 635.206 108.568C635.715 113.033 639.747 116.239 644.211 115.73L656.43 114.338C660.894 113.828 664.1 109.796 663.591 105.332C663.082 100.869 659.051 97.6627 654.587 98.1716Z" fill="#7F71B8"/>
<path d="M636.561 112.401C636.56 112.34 636.559 112.28 636.559 112.219C635.84 111.164 635.361 109.925 635.207 108.568C634.698 104.104 637.904 100.072 642.368 99.5637L654.587 98.1715C654.846 98.1419 655.104 98.1245 655.359 98.1191C655.305 98.1178 655.251 98.1178 655.196 98.1178C654.894 98.1178 654.588 98.1352 654.281 98.1701L642.049 99.561C637.586 100.07 634.386 104.095 634.895 108.558C635.063 110.038 635.732 111.286 636.561 112.401Z" fill="#9EA5C9"/>
<path d="M636.558 112.219C636.558 112.091 636.561 111.962 636.566 111.833C635.981 110.862 635.59 109.755 635.453 108.556C635.302 107.227 635.559 105.984 636.002 104.812C636.374 105.971 636.997 107.007 637.804 107.847C639.061 105.839 641.174 104.399 643.715 104.109L655.926 102.717C656.222 102.684 656.514 102.668 656.803 102.668C658.457 102.668 659.994 103.203 661.282 104.105C661.601 103.297 661.788 102.423 661.816 101.518C660.46 99.6242 658.321 98.3622 655.926 98.1501C655.738 98.134 655.549 98.1232 655.358 98.1192C655.103 98.1246 654.846 98.142 654.587 98.1716L642.367 99.5637C637.903 100.073 634.697 104.104 635.206 108.568C635.361 109.925 635.84 111.164 636.558 112.219" fill="#A1F0F4"/>
<path d="M643.542 115.784C643.848 115.784 644.158 115.766 644.47 115.73L656.681 114.339C661.145 113.83 664.345 109.785 663.835 105.322C663.645 103.641 662.843 102.242 661.817 101.048C661.817 101.073 661.819 101.095 661.819 101.118C662.769 102.285 663.408 103.727 663.591 105.332C664.1 109.796 660.894 113.828 656.43 114.338L644.211 115.73C643.938 115.761 643.667 115.778 643.398 115.782C643.447 115.782 643.494 115.784 643.542 115.784" fill="#0F227A"/>
<path d="M643.398 115.782C643.667 115.778 643.938 115.761 644.211 115.73L656.43 114.338C660.894 113.828 664.1 109.796 663.591 105.332C663.408 103.727 662.769 102.285 661.819 101.118C661.822 101.253 661.82 101.385 661.816 101.518C662.595 102.604 663.114 103.9 663.277 105.324C663.305 105.57 663.271 105.806 663.277 106.049C662.717 105.298 662.043 104.638 661.282 104.105C660.303 106.58 658.068 108.448 655.231 108.772L643.902 110.065C643.619 110.097 643.338 110.113 643.06 110.113C641.01 110.113 639.151 109.251 637.804 107.847C637.071 109.02 636.631 110.387 636.566 111.833C637.987 114.188 640.551 115.731 643.398 115.782" fill="#7F71B8"/>
<path d="M636.566 111.833C636.631 110.387 637.071 109.02 637.804 107.847C636.997 107.006 636.374 105.971 636.002 104.811C635.559 105.983 635.302 107.227 635.453 108.556C635.59 109.755 635.981 110.862 636.566 111.833ZM663.277 106.049C663.271 105.806 663.305 105.57 663.277 105.324C663.114 103.9 662.595 102.604 661.816 101.518C661.788 102.423 661.601 103.297 661.282 104.105C662.043 104.638 662.717 105.297 663.277 106.049Z" fill="#84C7DC"/>
<path d="M655.512 100.627C658.331 100.627 660.771 102.749 661.098 105.617C661.449 108.699 659.228 111.493 656.145 111.845L643.927 113.237C642.436 113.409 640.963 112.986 639.787 112.05C638.611 111.115 637.87 109.777 637.699 108.285C637.529 106.79 637.95 105.32 638.885 104.144C639.82 102.968 641.159 102.227 642.652 102.057L654.87 100.665C655.086 100.639 655.299 100.627 655.512 100.627V100.627ZM643.268 118.293C643.675 118.293 644.084 118.269 644.495 118.223L656.713 116.831C662.545 116.165 666.748 110.88 666.084 105.049C665.418 99.2174 660.138 95.01 654.302 95.6786L642.082 97.0707C639.258 97.3929 636.729 98.7958 634.958 101.022C633.188 103.246 632.391 106.028 632.713 108.852C633.035 111.677 634.438 114.208 636.663 115.977C638.565 117.49 640.873 118.293 643.268 118.293Z" fill="#0F227A"/>
<path d="M616.528 212.699C615.923 211.83 615.334 210.952 614.751 210.068C613.204 207.728 611.795 205.295 610.396 202.856C610.284 202.856 610.172 202.857 610.059 202.857C591.268 202.854 570.871 193.876 554.553 184.383C552.225 185.053 549.641 185.439 546.776 185.462C564.345 199.34 589.221 210.421 616.528 212.699Z" fill="white"/>
<path d="M546.776 185.462C549.641 185.439 552.225 185.053 554.553 184.383C543.718 178.078 534.676 171.546 529.095 167.267C533.514 173.526 539.523 179.734 546.776 185.462" fill="#CFD3E4"/>
<path d="M619.518 216.665C618.459 215.382 617.475 214.053 616.528 212.699C589.221 210.421 564.345 199.34 546.776 185.462C539.523 179.734 533.513 173.526 529.095 167.267C525.526 164.531 523.372 162.716 523.067 162.47C535.017 186.139 572.502 213.805 619.518 216.665Z" fill="#0F227A"/>
<path d="M622.306 216.804L619.77 213.214C619.725 213.218 619.68 213.22 619.635 213.22C619.099 213.22 618.575 212.945 618.283 212.45C618.013 211.991 618.002 211.452 618.206 211.001L612.419 202.809C611.743 202.835 611.075 202.852 610.396 202.856C611.794 205.295 613.204 207.728 614.751 210.068C615.333 210.952 615.923 211.83 616.528 212.699C617.474 214.053 618.459 215.382 619.518 216.665C620.443 216.721 621.374 216.768 622.306 216.804" fill="#0F227A"/>
<path d="M619.635 213.22C619.681 213.22 619.725 213.218 619.771 213.214L618.206 211.001C618.002 211.452 618.013 211.991 618.283 212.45C618.576 212.945 619.099 213.22 619.635 213.22" fill="#0F227A"/>
<path fill-rule="evenodd" clip-rule="evenodd" d="M740.359 199.466C740.359 199.466 755.601 198.055 761.257 212.632C766.914 227.209 756.507 235.921 756.507 235.921C756.507 235.921 768.758 268.235 750.125 276.899C731.491 285.56 685.519 228.465 707.927 208.372L740.359 199.466" fill="#DB6363"/>
<path d="M711.466 245.089C712.763 243.261 714.133 241.616 715.551 240.141C709.93 231.441 705.658 222.107 704.484 216.216C703.761 218.783 703.666 221.499 703.892 224.184C704.038 225.549 704.246 226.909 704.533 228.264C704.842 229.616 705.187 230.961 705.634 232.286C706.462 234.949 707.571 237.546 708.796 240.086C709.623 241.783 710.515 243.452 711.466 245.089ZM751.652 227.879L749.978 224.783C750.283 225.684 750.615 226.698 750.953 227.801C751.208 227.827 751.442 227.853 751.652 227.879Z" fill="#BFA892"/>
<path d="M715.551 240.141C715.708 239.978 715.862 239.819 716.021 239.66C710.021 230.374 705.592 220.403 704.916 214.816C704.763 215.24 704.628 215.672 704.513 216.11C704.503 216.145 704.493 216.181 704.483 216.216C705.658 222.107 709.93 231.441 715.551 240.141V240.141ZM752.474 227.99L750.924 225.124C749.722 223.184 748.649 221.578 747.963 220.574L747.756 220.672C747.79 220.755 748.927 223.588 750.198 227.732C750.467 227.754 750.719 227.778 750.953 227.801C750.614 226.698 750.283 225.683 749.978 224.783L751.652 227.878C751.988 227.92 752.263 227.959 752.474 227.99" fill="white"/>
<path d="M724.684 277.559C726.496 276.166 728.28 274.987 729.98 273.992C728.596 273.012 727.267 271.973 725.978 270.896C721.321 266.973 717.158 262.558 713.505 257.75C711.161 254.695 709.029 251.47 707.152 248.093C710.848 258.259 716.419 269.323 724.684 277.559" fill="white"/>
<path d="M754.521 290.195C755.289 290.195 756.073 290.175 756.862 290.136C753.426 285.473 749.926 281.764 748.261 280.076C748.007 280.123 747.753 280.166 747.501 280.196C746.953 280.258 746.41 280.287 745.874 280.287C744.65 280.287 743.459 280.137 742.322 279.899C740.994 279.617 739.733 279.221 738.524 278.747C736.372 280.041 733.993 281.579 731.638 283.308C737.96 287.554 745.513 290.195 754.521 290.195" fill="#7F71B8"/>
<path d="M731.638 283.308C733.993 281.578 736.372 280.041 738.524 278.747C737.266 278.254 736.066 277.677 734.905 277.054C732.837 278.109 730.677 279.405 728.508 280.996C729.517 281.811 730.558 282.581 731.638 283.308Z" fill="#84C7DC"/>
<path d="M756.862 290.136C756.869 290.136 756.875 290.136 756.88 290.136C753.43 285.458 749.919 281.744 748.27 280.075C748.268 280.075 748.265 280.076 748.261 280.076C749.926 281.764 753.426 285.473 756.862 290.136Z" fill="#0F227A"/>
<path d="M756.88 290.136C757.483 290.105 758.087 290.063 758.701 290.011C758.755 290.006 758.808 290.004 758.859 290.004C759.151 290.004 759.402 290.073 759.702 290.108C756.705 285.65 753.428 281.78 751.096 279.208C751.014 279.245 750.927 279.28 750.837 279.315L750.185 279.574C749.746 279.733 749.296 279.843 748.849 279.968C748.657 280.003 748.464 280.04 748.27 280.075C749.919 281.744 753.429 285.458 756.88 290.136ZM728.507 280.996C730.677 279.405 732.837 278.11 734.904 277.054C734.42 276.795 733.94 276.527 733.469 276.254C732.265 275.547 731.104 274.788 729.98 273.992C728.28 274.987 726.496 276.166 724.684 277.559C725.899 278.769 727.174 279.921 728.507 280.996Z" fill="#0F227A"/>
<path d="M757.036 231.537C757.473 230.921 757.881 230.282 758.238 229.617C759.138 227.947 759.817 226.159 760.137 224.301C760.781 220.593 760.239 216.67 758.711 213.051C758.53 212.608 758.334 212.174 758.122 211.75C757.793 215.2 755.845 219.465 748.227 219.465C747.888 219.465 747.537 219.457 747.175 219.44C747.175 219.44 747.469 219.85 747.963 220.574L748.363 220.385L750.924 225.124C751.484 226.026 752.072 227.001 752.663 228.02C752.864 228.052 752.969 228.072 752.969 228.072C754.457 229.049 755.808 230.223 757.036 231.537" fill="white"/>
<path d="M750.924 225.124L748.363 220.385L747.963 220.574C748.649 221.578 749.721 223.184 750.924 225.124" fill="#9A8A90"/>
<path d="M740.59 201.964C740.711 201.955 740.991 201.943 741.206 201.942C741.437 201.936 741.676 201.939 741.914 201.946C742.39 201.955 742.872 201.987 743.353 202.033C744.315 202.127 745.274 202.281 746.212 202.5C748.089 202.942 749.894 203.622 751.513 204.581C754.778 206.468 757.248 209.469 758.711 213.051C760.239 216.67 760.781 220.593 760.137 224.301C759.817 226.159 759.138 227.947 758.239 229.617C757.789 230.454 757.26 231.248 756.692 232.008C756.395 232.376 756.105 232.752 755.788 233.092C755.635 233.271 755.476 233.431 755.317 233.592C755.237 233.676 755.159 233.755 755.084 233.822L754.896 233.998L754.817 234.07C754.045 234.79 753.82 235.877 754.16 236.81C754.612 238.049 755.053 239.448 755.438 240.795C755.829 242.157 756.176 243.534 756.484 244.915C757.111 247.678 757.548 250.47 757.791 253.253C758.016 256.035 758.005 258.81 757.661 261.487C757.277 264.144 756.563 266.717 755.304 268.9C754.035 271.066 752.309 272.887 750.094 274.075L749.261 274.518C749.118 274.603 748.99 274.657 748.871 274.698L748.503 274.847C748.253 274.937 747.987 274.995 747.731 275.077C747.457 275.116 747.191 275.182 746.912 275.213C745.795 275.34 744.583 275.247 743.354 274.988C740.884 274.471 738.39 273.321 736.038 271.915C733.678 270.5 731.43 268.814 729.286 266.991C725.013 263.31 721.199 259.041 717.746 254.527C714.336 249.978 711.268 245.163 708.796 240.086C707.571 237.546 706.462 234.95 705.634 232.286C705.187 230.961 704.842 229.616 704.533 228.264C704.246 226.909 704.038 225.549 703.891 224.184C703.662 221.462 703.764 218.708 704.513 216.11C705.199 213.487 706.607 211.088 708.486 208.995L708.499 208.982C708.808 208.637 708.779 208.105 708.434 207.796C708.131 207.524 707.683 207.513 707.369 207.749C704.914 209.597 702.891 212.171 701.687 215.11C701.087 216.575 700.631 218.107 700.365 219.663C700.098 221.217 699.982 222.791 699.974 224.355C699.977 227.485 700.475 230.565 701.209 233.545C701.972 236.526 703.015 239.403 704.216 242.196C706.678 247.76 709.831 252.962 713.505 257.751C717.158 262.558 721.321 266.974 725.978 270.896C728.316 272.848 730.784 274.676 733.469 276.254C736.161 277.809 739.039 279.201 742.322 279.899C743.957 280.242 745.702 280.401 747.501 280.196C747.95 280.145 748.401 280.047 748.849 279.968C749.296 279.843 749.746 279.733 750.185 279.574L750.837 279.315C751.062 279.228 751.268 279.137 751.443 279.036L752.553 278.448C755.519 276.856 757.993 274.285 759.659 271.392C761.33 268.48 762.183 265.287 762.634 262.161C763.038 259.021 763.038 255.902 762.792 252.842C762.526 249.786 762.05 246.774 761.381 243.82C761.051 242.34 760.681 240.873 760.263 239.417C759.84 237.947 759.405 236.546 758.852 235.032L758.116 237.844C758.295 237.694 758.405 237.586 758.525 237.474C758.649 237.359 758.762 237.248 758.868 237.137C759.09 236.914 759.309 236.689 759.507 236.46C759.925 236.01 760.297 235.534 760.675 235.06C761.4 234.094 762.067 233.088 762.642 232.024C763.787 229.904 764.654 227.602 765.072 225.203C765.199 224.61 765.233 224 765.314 223.399C765.344 223.097 765.389 222.796 765.406 222.494L765.417 221.586C765.409 220.982 765.456 220.371 765.395 219.773L765.214 217.978C765.177 217.372 765.013 216.799 764.899 216.214C764.767 215.632 764.664 215.04 764.503 214.471L763.951 212.789C763.764 212.229 763.592 211.665 763.343 211.122C762.423 208.929 761.215 206.801 759.624 204.945C758.059 203.075 756.148 201.478 754.049 200.251C751.952 199.014 749.671 198.158 747.351 197.613C746.188 197.342 745.014 197.153 743.828 197.037C743.235 196.982 742.641 196.942 742.039 196.929C741.738 196.921 741.436 196.918 741.127 196.923C740.805 196.93 740.546 196.935 740.128 196.968C738.747 197.078 737.716 198.286 737.826 199.667C737.935 201.049 739.143 202.08 740.524 201.97L740.59 201.964Z" fill="#0F227A"/>
<path fill-rule="evenodd" clip-rule="evenodd" d="M748.383 227.621C751.225 227.736 752.969 228.072 752.969 228.072C755.177 229.523 757.088 231.407 758.732 233.541C757.571 235.038 756.615 235.913 756.615 235.913C756.615 235.913 768.859 268.237 750.225 276.899C739.756 281.765 720.658 265.863 709.906 247.439C721.432 228.911 739.872 227.276 748.383 227.621Z" fill="#7F71B8"/>
<path d="M746.01 277.979C746.142 277.979 746.275 277.977 746.407 277.971C746.768 277.96 747.117 277.919 747.466 277.875C747.79 277.829 748.115 277.791 748.426 277.717C748.429 277.716 748.431 277.716 748.434 277.716C748.438 277.716 748.441 277.716 748.445 277.717C748.449 277.717 748.453 277.717 748.457 277.717C748.46 277.717 748.464 277.717 748.466 277.717C748.54 277.699 748.607 277.658 748.681 277.638C749.193 277.501 749.693 277.331 750.171 277.109C758.324 273.319 760.596 265.098 760.564 257.035C760.545 265.064 758.244 273.172 750.225 276.899C748.928 277.501 747.498 277.786 745.968 277.786C736.2 277.786 722.347 266.2 712.815 252.066L712.199 251.255C717.308 259.077 723.77 266.208 730.218 271.131C731.955 272.459 733.704 273.583 735.412 274.561C735.675 274.71 735.934 274.853 736.196 274.992C737.593 275.751 738.955 276.336 740.292 276.815C740.837 277.007 741.387 277.223 741.919 277.364C742.322 277.474 742.72 277.579 743.114 277.658C744.107 277.853 745.081 277.979 746.01 277.979V277.979ZM710.288 248.191C710.299 248.176 710.31 248.158 710.322 248.142C710.214 247.961 710.107 247.781 710.001 247.6C709.99 247.616 709.98 247.633 709.97 247.649C710.075 247.831 710.181 248.011 710.288 248.191Z" fill="#0F227A"/>
<path d="M745.968 277.786C747.498 277.786 748.928 277.501 750.225 276.898C758.244 273.172 760.545 265.064 760.563 257.035C760.559 256.084 760.523 255.135 760.461 254.195C759.872 245.295 756.929 237.268 756.678 236.594L753.172 230.126C752.745 230.146 752.091 230.182 751.252 230.249C754.579 241.967 757.669 260.65 744.075 262.487C743.592 262.553 743.106 262.585 742.616 262.585C734.636 262.585 725.777 254.146 718.592 244.073C715.376 248.352 714.834 252.841 716.611 257.056L712.815 252.066C722.347 266.2 736.2 277.786 745.968 277.786ZM710.322 248.142C710.984 247.157 713.074 244.194 716.38 240.844C716.235 240.624 716.09 240.403 715.948 240.181C713.847 242.32 711.824 244.678 710.001 247.6C710.107 247.781 710.214 247.961 710.322 248.142ZM753.031 229.865L752.131 228.205C751.911 228.168 751.158 228.115 750.602 228.049C750.723 228.441 750.845 228.846 750.966 229.26C751.649 229.437 752.335 229.638 753.031 229.865Z" fill="#7F71B8"/>
<path d="M712.199 251.256C711.538 250.245 710.901 249.222 710.288 248.191C710.159 248.384 710.094 248.489 710.094 248.489L712.199 251.256" fill="#9EA5C9"/>
<path d="M718.592 244.073C718.952 243.594 719.345 243.117 719.773 242.643C728.513 232.969 745 230.75 751.252 230.25C751.157 229.913 751.063 229.585 750.966 229.26C748.218 228.547 745.579 228.23 743.052 228.23C731.291 228.23 722.048 235.105 716.381 240.845C717.098 241.933 717.835 243.013 718.592 244.073V244.073ZM753.172 230.126C753.543 230.11 753.743 230.106 753.743 230.106C753.505 230.023 753.267 229.942 753.031 229.866L753.172 230.126Z" fill="#A1F0F4"/>
<path d="M712.815 252.066C711.946 250.778 711.113 249.466 710.322 248.142C710.31 248.158 710.299 248.176 710.288 248.191C710.901 249.222 711.538 250.245 712.199 251.256L712.815 252.066Z" fill="#9EA5C9"/>
<path d="M716.612 257.056C714.834 252.841 715.376 248.352 718.592 244.073C717.835 243.013 717.098 241.933 716.381 240.844C713.074 244.194 710.984 247.157 710.322 248.142C711.113 249.466 711.946 250.778 712.815 252.066L716.612 257.056ZM751.252 230.249C752.091 230.182 752.745 230.146 753.172 230.126L753.031 229.865C752.335 229.639 751.649 229.437 750.966 229.26C751.063 229.585 751.157 229.912 751.252 230.249Z" fill="#A1E1EB"/>
<path d="M758.873 235.047C758.582 233.98 758.224 233.038 757.803 232.079C757.603 231.603 757.384 231.133 757.15 230.672C756.924 230.206 756.69 229.745 756.433 229.295C755.451 227.472 754.266 225.756 753.015 224.093C751.749 222.436 750.379 220.849 748.88 219.385C747.353 217.944 745.711 216.603 743.88 215.588C743.703 215.49 743.48 215.553 743.382 215.73C743.312 215.856 743.324 216.004 743.398 216.114L743.405 216.124C744.55 217.808 745.568 219.487 746.513 221.208C747.454 222.931 748.311 224.689 749.152 226.447C749.986 228.213 750.736 230.016 751.582 231.765C752.409 233.51 753.262 235.307 754.22 236.926L754.265 237.001C754.976 238.201 756.525 238.597 757.725 237.887C758.726 237.295 759.166 236.117 758.873 235.047" fill="#0F227A"/>
<path d="M748.383 227.621H748.376H748.383ZM755.453 233.524C755.125 233.873 754.92 234.063 754.916 234.068C754.166 234.762 753.907 235.846 754.27 236.802C754.383 237.103 765.466 267.047 749.167 274.623C741.081 278.385 723.711 265.298 712.858 247.49C723.496 231.601 739.533 229.773 748.281 230.129C750.046 230.2 751.358 230.362 752.02 230.46C753.22 231.299 754.368 232.325 755.453 233.524V233.524ZM746.047 280.276C747.909 280.276 749.666 279.925 751.283 279.174C769.565 270.675 761.782 243.376 759.496 236.542C759.853 236.142 760.269 235.652 760.714 235.08C761.415 234.178 761.417 232.916 760.719 232.011C758.806 229.527 756.662 227.497 754.346 225.975C754.073 225.795 753.765 225.67 753.443 225.608C753.365 225.594 751.48 225.237 748.485 225.114C740.383 224.781 720.182 226.171 707.775 246.112C707.284 246.903 707.27 247.899 707.739 248.703C717.483 265.4 733.942 280.275 746.047 280.276Z" fill="#0F227A"/>
<path fill-rule="evenodd" clip-rule="evenodd" d="M713.666 185.575C713.666 185.575 702.884 176.454 711.876 163.982C722.961 148.612 756.627 159.438 756.547 181.406C756.474 201.545 736.961 201.395 731.235 201.245C730.61 201.229 730.148 201.212 729.895 201.222C725.19 201.411 713.96 197.793 713.666 185.575Z" fill="#F1C0A5"/>
<path d="M716.175 185.5L716.356 184.093C716.417 183.595 716.513 183.101 716.591 182.609C716.785 181.633 717.013 180.684 717.318 179.79C717.946 178.011 718.8 176.441 720.192 175.306C720.889 174.749 721.693 174.256 722.61 173.895C723.539 173.577 724.539 173.274 725.606 173.146C727.735 172.812 730.031 172.905 732.37 173.06H732.375C732.576 173.074 732.751 172.921 732.764 172.719C732.774 172.569 732.691 172.435 732.566 172.37C730.435 171.287 728.125 170.464 725.601 170.158C724.969 170.093 724.331 170.032 723.674 170.048C723.022 170.018 722.357 170.111 721.689 170.183C720.357 170.403 718.989 170.805 717.735 171.507C716.479 172.198 715.319 173.131 714.392 174.234C713.453 175.33 712.752 176.579 712.231 177.853C711.709 179.13 711.372 180.445 711.194 181.761C711.103 182.419 711.058 183.078 711.044 183.74C711.039 184.07 711.049 184.402 711.064 184.737C711.083 185.09 711.109 185.371 711.168 185.814C711.352 187.186 712.612 188.149 713.984 187.966C715.133 187.812 715.995 186.901 716.138 185.805L716.175 185.5" fill="#0F227A"/>
<path d="M727.774 159.259C730.572 159.259 733.565 159.741 736.617 160.733C744.679 163.354 754.079 170.338 754.038 181.397C754.019 186.668 752.526 190.78 749.599 193.617C743.958 199.085 734.194 198.819 730.986 198.727C730.443 198.714 730.037 198.706 729.795 198.715C727.662 198.8 723.321 197.829 720.091 194.801C717.583 192.449 716.266 189.325 716.174 185.515C716.156 184.8 715.837 184.129 715.295 183.666C714.372 182.871 706.558 175.65 713.912 165.45C716.825 161.41 721.866 159.259 727.774 159.259V159.259ZM732.977 203.779C737.859 203.779 746.996 203.128 753.093 197.219C757.026 193.406 759.032 188.089 759.056 181.415C759.098 170.091 750.899 160.098 738.168 155.962C726.554 152.187 715.435 154.759 709.841 162.515C702.168 173.157 706.999 182.562 711.212 186.726C711.561 191.395 713.432 195.434 716.66 198.46C720.758 202.307 726.315 203.873 729.996 203.73C730.171 203.723 730.459 203.735 730.847 203.744C731.402 203.761 732.124 203.779 732.977 203.779" fill="#0F227A"/>
<path d="M732.94 198.761C737.158 198.761 744.844 198.227 749.599 193.617C751.627 191.651 752.966 189.073 753.604 185.923C750.503 188.875 744.84 192.342 735.272 192.416C735.218 192.418 735.167 192.418 735.114 192.418C723.372 192.416 720.084 182.164 719.165 176.329C718.35 177.315 717.774 178.497 717.318 179.79C717.013 180.684 716.785 181.633 716.591 182.609C716.513 183.101 716.417 183.595 716.356 184.093L716.175 185.5L716.174 185.513V185.515C716.266 189.325 717.583 192.449 720.091 194.801C723.195 197.711 727.325 198.721 729.536 198.721C729.624 198.721 729.712 198.719 729.795 198.715C729.867 198.713 729.955 198.711 730.057 198.711C730.293 198.711 730.606 198.718 730.986 198.727C731.489 198.742 732.154 198.761 732.94 198.761V198.761ZM711.837 178.926C711.954 178.566 712.086 178.209 712.231 177.853C712.752 176.579 713.453 175.33 714.392 174.234C714.78 173.772 715.209 173.341 715.668 172.943C713.33 172.804 712.256 171.092 711.786 169.214C710.186 173.131 710.739 176.453 711.837 178.926" fill="#CFD3E4"/>
<path d="M716.174 185.513L716.175 185.5L716.357 184.093C716.417 183.595 716.514 183.101 716.591 182.609C716.785 181.633 717.013 180.684 717.318 179.79C717.774 178.497 718.35 177.315 719.165 176.329C718.8 174.007 718.808 172.385 718.808 172.385C717.714 172.78 716.779 172.953 715.982 172.953C715.875 172.953 715.77 172.95 715.668 172.943C715.209 173.341 714.78 173.772 714.392 174.234C713.453 175.33 712.752 176.579 712.231 177.853C712.086 178.209 711.954 178.566 711.838 178.926C713.034 181.617 714.876 183.305 715.295 183.666C715.836 184.129 716.156 184.799 716.174 185.513" fill="#0F227A"/>
<path d="M732.829 200.829C739.705 200.829 755.394 199.502 756.403 182.538C755.931 183.296 755.043 184.553 753.604 185.923C752.967 189.074 751.627 191.651 749.6 193.617C744.844 198.227 737.159 198.761 732.94 198.761C732.154 198.761 731.489 198.742 730.986 198.728C730.606 198.718 730.293 198.711 730.057 198.711C729.955 198.711 729.867 198.713 729.795 198.716C729.712 198.72 729.624 198.721 729.536 198.721C727.325 198.721 723.195 197.711 720.091 194.801C717.584 192.449 716.267 189.325 716.174 185.515V185.513C716.157 184.799 715.836 184.129 715.295 183.666C714.876 183.305 713.034 181.617 711.838 178.926C710.74 176.453 710.186 173.131 711.787 169.214C711.187 166.81 711.576 164.133 711.576 164.133L711.438 164.172C703.259 176.313 713.634 185.144 713.634 185.144C713.92 197.066 724.617 200.794 729.508 200.794C729.63 200.794 729.748 200.791 729.863 200.787C729.92 200.784 729.986 200.783 730.062 200.783C730.321 200.783 730.694 200.795 731.162 200.806C731.629 200.818 732.191 200.829 732.829 200.829" fill="#0F227A"/>
<path d="M574.92 62.9954C605.169 62.9954 630.059 41.0294 632.456 13.1873C628.791 23.8521 620.792 40.6333 604.812 50.5034C596.003 55.9446 585.871 58.6685 574.516 58.6685C567.88 58.6685 560.826 57.7381 553.377 55.8747C552.859 56.7568 552.359 57.6347 551.879 58.5074C559.1 61.4528 566.974 62.9954 574.92 62.9954Z" fill="#7F71B8"/>
<path d="M551.879 58.5073C552.359 57.6347 552.859 56.7567 553.377 55.8747C552.459 55.6451 551.532 55.4008 550.601 55.143C550.237 55.919 549.882 56.7043 549.543 57.4951C550.313 57.8495 551.092 58.1865 551.879 58.5073" fill="#87CBD8"/>
<path d="M572.824 65.3408C574.219 65.3408 575.66 65.2871 577.142 65.1703C603.961 63.0411 634.649 46.2545 634.562 6.07886C634.134 7.81472 633.456 10.2728 632.455 13.1874C630.059 41.0295 605.169 62.9955 574.92 62.9955C566.974 62.9955 559.1 61.4529 551.879 58.5075C551.092 58.1866 550.313 57.8497 549.543 57.4952C549.882 56.7045 550.237 55.9192 550.601 55.1432C549.778 54.915 548.949 54.6747 548.117 54.425L547.046 58.4645C548.513 59.4191 558.21 65.3408 572.824 65.3408" fill="#122677"/>
<path d="M574.516 58.6685C585.871 58.6685 596.003 55.9445 604.812 50.5034C620.792 40.6333 628.791 23.8521 632.456 13.1873C632.53 12.3146 632.583 11.4366 632.614 10.5533C629.414 20.8261 621.54 39.3861 604.454 49.9355C595.757 55.3068 585.741 57.9959 574.514 57.9959C567.99 57.9959 561.059 57.0883 553.736 55.2719C553.615 55.4733 553.497 55.6747 553.377 55.8747C560.827 57.7381 567.88 58.6685 574.516 58.6685" fill="#7F71B8"/>
<path d="M553.377 55.8748C553.496 55.6747 553.615 55.4733 553.735 55.272C552.793 55.0384 551.846 54.79 550.892 54.5269C550.794 54.7323 550.697 54.9363 550.601 55.1431C551.532 55.4009 552.459 55.6452 553.377 55.8748Z" fill="#84C7DC"/>
<path d="M635.088 0.832275L635.058 -7.46101e-05L634.917 0.825563C634.976 0.828248 635.029 0.830933 635.088 0.832275Z" fill="#CFD3E4"/>
<path d="M635.092 0.948975L635.088 0.832188C635.029 0.830845 634.975 0.82816 634.916 0.825475L634.898 0.936913C634.922 0.938256 634.946 0.939609 634.97 0.940951C635.01 0.942294 635.052 0.944947 635.092 0.948975" fill="#0F227A"/>
<path d="M572.85 66.012C574.256 66.012 575.704 65.9569 577.196 65.8388C591.951 64.6681 606.214 59.0256 616.326 50.3584C629.571 39.0076 635.913 23.154 635.177 3.23936L635.092 0.949033C635.052 0.945006 635.011 0.942352 634.97 0.94101C634.946 0.939667 634.922 0.938314 634.898 0.936972L634.511 3.19505C634.495 3.28902 633.981 6.16465 632.614 10.5533C632.583 11.4366 632.53 12.3147 632.456 13.1873C633.456 10.2727 634.134 7.8146 634.562 6.07875C634.649 46.2544 603.961 63.041 577.142 65.1702C575.66 65.287 574.219 65.3407 572.825 65.3407C558.21 65.3407 548.513 59.419 547.046 58.4644L548.117 54.4248C548.95 54.6746 549.778 54.9149 550.601 55.1431C550.697 54.9363 550.794 54.7323 550.892 54.5269C549.928 54.2611 548.956 53.9791 547.98 53.6824L547.647 53.5804L546.275 58.7504L546.467 58.8846C546.577 58.9625 556.792 66.012 572.825 66.012C572.833 66.012 572.842 66.012 572.85 66.012" fill="#0F227A"/>
<path fill-rule="evenodd" clip-rule="evenodd" d="M591.181 90.369C589.239 84.3761 584.401 80.5755 580.372 81.8804C576.343 83.1853 574.652 89.1004 576.592 95.0933C578.533 101.085 583.371 104.885 587.4 103.581C591.429 102.277 593.12 96.3606 591.181 90.369Z" fill="#0F227A"/>
<path fill-rule="evenodd" clip-rule="evenodd" d="M584.296 89.6009C583.668 87.6597 582.101 86.4286 580.796 86.8515C579.491 87.2744 578.944 89.1901 579.572 91.1301C580.2 93.0727 581.768 94.3024 583.073 93.8808C584.377 93.458 584.925 91.5409 584.296 89.6009" fill="#FDFEFD"/>
<path d="M546.922 187.444C555.008 187.444 561.75 185.154 567.018 180.608C577.433 171.621 578.103 157.174 578.126 156.565C578.18 155.181 577.1 154.014 575.716 153.961C574.325 153.93 573.168 154.986 573.113 156.368C573.105 156.531 572.459 169.311 563.712 176.834C558.464 181.346 551.268 183.141 542.328 182.166C540.948 182.013 539.713 183.011 539.563 184.39C539.412 185.767 540.407 187.005 541.786 187.155C543.553 187.347 545.266 187.444 546.922 187.444" fill="#0F227A"/>
<path d="M733.965 325.525L774.871 366.982L737.686 322.158C736.8 321.091 735.217 320.943 734.15 321.829C733.083 322.714 732.935 324.297 733.82 325.366C733.865 325.419 733.916 325.476 733.965 325.525Z" fill="#0F227A"/>
<path d="M751.204 276.968L829.396 366.982L755.061 273.757C754.196 272.674 752.617 272.497 751.534 273.36C750.451 274.224 750.272 275.803 751.137 276.887C751.157 276.912 751.184 276.944 751.204 276.968" fill="#0F227A"/>
<path d="M760.694 227.036L824.808 292.086L764.363 223.614C763.446 222.574 761.859 222.475 760.82 223.392C759.781 224.31 759.683 225.896 760.6 226.935C760.628 226.968 760.664 227.006 760.694 227.036Z" fill="#0F227A"/>
<path d="M581.729 211.052L644.954 283.603L585.597 207.855C584.742 206.764 583.164 206.573 582.073 207.428C580.983 208.282 580.791 209.861 581.646 210.951C581.671 210.983 581.702 211.021 581.729 211.052" fill="#0F227A"/>
<path d="M601.018 214.96L630.874 246.529L604.856 211.728C604.025 210.617 602.451 210.388 601.339 211.219C600.227 212.05 599.999 213.625 600.83 214.738C600.889 214.815 600.952 214.89 601.018 214.96" fill="#0F227A"/>
<path d="M757.52 267.423L798.154 310.632L761.318 264.144C760.456 263.056 758.878 262.873 757.79 263.734C756.703 264.596 756.52 266.175 757.382 267.262C757.425 267.317 757.473 267.374 757.52 267.423Z" fill="#0F227A"/>
<path d="M749.553 328.695L764.687 342.873L753.401 325.476C752.642 324.305 751.076 323.971 749.906 324.731C748.735 325.49 748.401 327.054 749.161 328.226C749.272 328.398 749.412 328.561 749.553 328.695" fill="#0F227A"/>
<path d="M754.755 207.052L787.804 237.229L758.34 203.543C757.426 202.499 755.839 202.392 754.795 203.305C753.75 204.22 753.644 205.806 754.557 206.851C754.619 206.922 754.686 206.991 754.755 207.052" fill="#0F227A"/>
</g>
<path d="M7.30469 129.841C7.30469 126.742 8.35612 124.141 10.459 122.039C12.6725 119.825 15.3288 118.718 18.4277 118.718H115.049C118.148 118.718 120.804 119.77 123.018 121.873C125.12 124.086 126.172 126.742 126.172 129.841C126.172 132.94 125.065 135.597 122.852 137.81C120.749 139.913 118.148 140.964 115.049 140.964H78.0273V208.201C77.3633 214.841 73.7109 218.438 67.0703 218.992C63.9714 218.992 61.2598 217.996 58.9355 216.003C56.722 213.901 55.6152 211.3 55.6152 208.201V140.964H18.4277C15.3288 140.964 12.7279 139.858 10.625 137.644C8.41146 135.541 7.30469 132.94 7.30469 129.841ZM236.406 207.869V167.859C236.406 165.092 234.967 163.653 232.09 163.542H173.984C171.882 163.653 170.055 164.594 168.506 166.365C166.956 168.025 165.794 170.017 165.02 172.341C164.355 174.555 164.023 176.824 164.023 179.148C164.023 181.361 164.355 183.63 165.02 185.955C165.794 188.168 166.956 190.16 168.506 191.931C170.055 193.591 171.882 194.421 173.984 194.421H216.484C219.583 194.421 222.184 195.528 224.287 197.742C226.501 199.845 227.607 202.445 227.607 205.544C227.607 208.643 226.501 211.244 224.287 213.347C222.184 215.561 219.583 216.667 216.484 216.667H174.648C166.901 216.557 160.482 214.399 155.391 210.193C150.41 205.876 146.813 201.062 144.6 195.75C142.497 190.326 141.445 184.737 141.445 178.982C141.445 173.448 142.552 168.025 144.766 162.712C146.979 157.289 150.576 152.475 155.557 148.269C160.537 143.953 167.897 141.628 177.637 141.296H247.363C250.462 141.296 253.118 142.348 255.332 144.451C257.546 146.443 258.708 148.988 258.818 152.087V207.869C258.818 210.968 257.656 213.569 255.332 215.671C253.118 217.664 250.462 218.66 247.363 218.66C240.723 218.106 237.07 214.509 236.406 207.869ZM373.369 167.859C373.369 165.092 371.93 163.653 369.053 163.542H310.947C308.844 163.653 307.018 164.594 305.469 166.365C303.919 168.025 302.757 170.017 301.982 172.341C301.318 174.555 300.986 176.824 300.986 179.148C300.986 181.361 301.318 183.63 301.982 185.955C302.757 188.168 303.919 190.16 305.469 191.931C307.018 193.591 308.844 194.421 310.947 194.421H353.447C356.546 194.421 359.147 195.528 361.25 197.742C363.464 199.845 364.57 202.445 364.57 205.544C364.57 208.643 363.464 211.244 361.25 213.347C359.147 215.561 356.546 216.667 353.447 216.667H311.611C303.864 216.557 297.445 214.399 292.354 210.193C287.373 205.876 283.776 201.062 281.562 195.75C279.46 190.326 278.408 184.737 278.408 178.982C278.408 173.448 279.515 168.025 281.729 162.712C283.942 157.289 287.539 152.475 292.52 148.269C297.5 143.953 304.86 141.628 314.6 141.296H384.326C387.425 141.296 390.081 142.348 392.295 144.451C394.508 146.443 395.671 148.988 395.781 152.087V204.548C395.781 213.403 394.564 221.759 392.129 229.617C389.915 236.589 386.263 242.455 381.172 247.214C376.191 252.084 369.827 254.74 362.08 255.183H304.639C301.65 255.072 299.105 253.966 297.002 251.863C295.01 249.871 293.958 247.38 293.848 244.392C293.848 241.293 294.844 238.637 296.836 236.423C298.939 234.21 301.54 233.048 304.639 232.937H356.436C360.641 232.716 364.128 231.111 366.895 228.123C369.661 225.134 371.432 221.648 372.207 217.664C372.982 213.679 373.369 208.533 373.369 202.224V167.859ZM510.996 207.869V167.859C510.996 165.092 509.557 163.653 506.68 163.542H448.574C446.471 163.653 444.645 164.594 443.096 166.365C441.546 168.025 440.384 170.017 439.609 172.341C438.945 174.555 438.613 176.824 438.613 179.148C438.613 181.361 438.945 183.63 439.609 185.955C440.384 188.168 441.546 190.16 443.096 191.931C444.645 193.591 446.471 194.421 448.574 194.421H491.074C494.173 194.421 496.774 195.528 498.877 197.742C501.09 199.845 502.197 202.445 502.197 205.544C502.197 208.643 501.09 211.244 498.877 213.347C496.774 215.561 494.173 216.667 491.074 216.667H449.238C441.491 216.557 435.072 214.399 429.98 210.193C425 205.876 421.403 201.062 419.189 195.75C417.087 190.326 416.035 184.737 416.035 178.982C416.035 173.448 417.142 168.025 419.355 162.712C421.569 157.289 425.166 152.475 430.146 148.269C435.127 143.953 442.487 141.628 452.227 141.296H521.953C525.052 141.296 527.708 142.348 529.922 144.451C532.135 146.443 533.298 148.988 533.408 152.087V207.869C533.408 210.968 532.246 213.569 529.922 215.671C527.708 217.664 525.052 218.66 521.953 218.66C515.312 218.106 511.66 214.509 510.996 207.869Z" fill="white"/>
<path d="M408.798 233.161V259.711C408.798 260.872 409.402 261.476 410.61 261.523H435C435.882 261.476 436.649 261.105 437.299 260.408C437.95 259.664 438.414 258.828 438.693 257.899C439.018 256.924 439.181 255.948 439.181 254.972C439.181 254.043 439.018 253.114 438.693 252.185C438.414 251.209 437.95 250.373 437.299 249.676C436.649 248.933 435.882 248.561 435 248.561H417.16C415.859 248.561 414.744 248.12 413.815 247.237C412.932 246.308 412.491 245.193 412.491 243.892C412.491 242.592 412.956 241.5 413.885 240.617C414.767 239.688 415.859 239.223 417.16 239.223H434.721C437.973 239.27 440.644 240.199 442.735 242.011C444.872 243.776 446.381 245.797 447.264 248.073C448.193 250.303 448.658 252.626 448.658 255.042C448.658 257.365 448.193 259.664 447.264 261.941C446.335 264.171 444.825 266.192 442.735 268.004C440.644 269.769 437.555 270.721 433.466 270.861H404.198C402.898 270.861 401.783 270.443 400.854 269.606C399.924 268.724 399.437 267.632 399.39 266.331V233.161C399.39 231.86 399.855 230.791 400.784 229.955C401.76 229.073 402.898 228.631 404.198 228.631C406.986 228.863 408.519 230.373 408.798 233.161ZM465.971 270.861C461.882 270.721 458.793 269.769 456.702 268.004C454.612 266.192 453.102 264.171 452.173 261.941C451.244 259.664 450.779 257.365 450.779 255.042C450.779 252.626 451.22 250.303 452.103 248.073C453.032 245.797 454.542 243.776 456.633 242.011C458.77 240.199 461.464 239.27 464.716 239.223H487.294C490.546 239.27 493.218 240.199 495.308 242.011C497.445 243.776 498.955 245.797 499.838 248.073C500.767 250.303 501.231 252.626 501.231 255.042C501.231 257.365 500.767 259.664 499.838 261.941C498.909 264.171 497.399 266.192 495.308 268.004C493.218 269.769 490.128 270.721 486.04 270.861H465.971ZM464.437 248.561C463.555 248.561 462.788 248.933 462.138 249.676C461.487 250.373 461 251.209 460.674 252.185C460.396 253.114 460.256 254.043 460.256 254.972C460.256 255.948 460.396 256.924 460.674 257.899C461 258.828 461.487 259.664 462.138 260.408C462.788 261.105 463.555 261.476 464.437 261.523H487.573C488.456 261.476 489.222 261.105 489.873 260.408C490.523 259.664 490.988 258.828 491.266 257.899C491.592 256.924 491.754 255.948 491.754 254.972C491.754 254.043 491.592 253.114 491.266 252.185C490.988 251.209 490.523 250.373 489.873 249.676C489.222 248.933 488.456 248.561 487.573 248.561H464.437ZM519.729 228.631C521.03 228.631 522.145 229.073 523.074 229.955C524.003 230.791 524.491 231.86 524.537 233.161V239.223H548.23C549.531 239.223 550.646 239.665 551.575 240.547C552.458 241.477 552.899 242.592 552.899 243.892C552.899 245.193 552.435 246.308 551.505 247.237C550.623 248.12 549.531 248.561 548.23 248.561H524.537V249.955C524.491 251.86 524.607 253.625 524.886 255.251C525.211 256.831 525.954 258.248 527.115 259.502C528.277 260.756 529.74 261.43 531.506 261.523H548.509C549.81 261.569 550.878 262.057 551.714 262.986C552.597 263.915 553.039 265.03 553.039 266.331C552.992 267.585 552.527 268.654 551.645 269.537C550.809 270.373 549.763 270.814 548.509 270.861H529.136C525.884 270.675 523.19 269.583 521.053 267.585C518.962 265.541 517.452 263.056 516.523 260.129C515.641 257.202 515.176 254.09 515.13 250.791V248.561H507.116C505.815 248.561 504.723 248.097 503.84 247.168C502.911 246.285 502.447 245.193 502.447 243.892C502.447 242.592 502.888 241.5 503.771 240.617C504.7 239.688 505.815 239.223 507.116 239.223H515.13V233.161C515.176 231.906 515.641 230.861 516.523 230.025C517.406 229.142 518.474 228.678 519.729 228.631Z" fill="white"/>
<defs>
<filter id="filter0_d_16_489" x="516" y="0" width="348.396" height="380.982" filterUnits="userSpaceOnUse" color-interpolation-filters="sRGB">
<feFlood flood-opacity="0" result="BackgroundImageFix"/>
<feColorMatrix in="SourceAlpha" type="matrix" values="0 0 0 0 0 0 0 0 0 0 0 0 0 0 0 0 0 0 127 0" result="hardAlpha"/>
<feOffset dx="30" dy="9"/>
<feGaussianBlur stdDeviation="2.5"/>
<feComposite in2="hardAlpha" operator="out"/>
<feColorMatrix type="matrix" values="0 0 0 0 0 0 0 0 0 0 0 0 0 0 0 0 0 0 0.25 0"/>
<feBlend mode="normal" in2="BackgroundImageFix" result="effect1_dropShadow_16_489"/>
<feBlend mode="normal" in="SourceGraphic" in2="effect1_dropShadow_16_489" result="shape"/>
</filter>
</defs>
</svg>
