<svg width="194" height="73" viewBox="0 0 194 73" fill="none" xmlns="http://www.w3.org/2000/svg">
<path d="M2.50816 20.0731C2.50816 19.009 2.86918 18.116 3.59123 17.3939C4.35127 16.6339 5.26333 16.2539 6.3274 16.2539H39.5035C40.5676 16.2539 41.4796 16.6149 42.2397 17.3369C42.9617 18.097 43.3227 19.009 43.3227 20.0731C43.3227 21.1372 42.9427 22.0492 42.1827 22.8093C41.4606 23.5313 40.5676 23.8924 39.5035 23.8924H26.7917V46.9788C26.5637 49.259 25.3096 50.494 23.0295 50.684C21.9654 50.684 21.0343 50.342 20.2363 49.658C19.4762 48.9359 19.0962 48.0429 19.0962 46.9788V23.8924H6.3274C5.26333 23.8924 4.37028 23.5123 3.64823 22.7523C2.88818 22.0302 2.50816 21.1372 2.50816 20.0731ZM81.1731 46.8648V33.1269C81.1731 32.1769 80.6791 31.6828 79.691 31.6448H59.7398C59.0177 31.6828 58.3907 32.0059 57.8587 32.6139C57.3266 33.1839 56.9276 33.868 56.6616 34.666C56.4336 35.4261 56.3196 36.2051 56.3196 37.0032C56.3196 37.7632 56.4336 38.5423 56.6616 39.3403C56.9276 40.1004 57.3266 40.7844 57.8587 41.3925C58.3907 41.9625 59.0177 42.2475 59.7398 42.2475H74.3327C75.3968 42.2475 76.2898 42.6275 77.0119 43.3876C77.7719 44.1096 78.1519 45.0027 78.1519 46.0668C78.1519 47.1308 77.7719 48.0239 77.0119 48.7459C76.2898 49.506 75.3968 49.886 74.3327 49.886H59.9678C57.3076 49.848 55.1035 49.1069 53.3554 47.6629C51.6453 46.1808 50.4102 44.5277 49.6501 42.7035C48.9281 40.8414 48.5671 38.9223 48.5671 36.9462C48.5671 35.0461 48.9471 33.1839 49.7071 31.3598C50.4672 29.4977 51.7023 27.8446 53.4124 26.4005C55.1225 24.9184 57.6496 24.1204 60.9938 24.0064H84.9354C85.9994 24.0064 86.9115 24.3674 87.6715 25.0894C88.4316 25.7735 88.8306 26.6475 88.8686 27.7116V46.8648C88.8686 47.9289 88.4696 48.8219 87.6715 49.544C86.9115 50.228 85.9994 50.57 84.9354 50.57C82.6552 50.38 81.4011 49.1449 81.1731 46.8648ZM128.201 33.1269C128.201 32.1769 127.707 31.6828 126.719 31.6448H106.768C106.046 31.6828 105.419 32.0059 104.887 32.6139C104.355 33.1839 103.956 33.868 103.69 34.666C103.462 35.4261 103.348 36.2051 103.348 37.0032C103.348 37.7632 103.462 38.5423 103.69 39.3403C103.956 40.1004 104.355 40.7844 104.887 41.3925C105.419 41.9625 106.046 42.2475 106.768 42.2475H121.361C122.425 42.2475 123.318 42.6275 124.04 43.3876C124.8 44.1096 125.18 45.0027 125.18 46.0668C125.18 47.1308 124.8 48.0239 124.04 48.7459C123.318 49.506 122.425 49.886 121.361 49.886H106.996C104.336 49.848 102.131 49.1069 100.383 47.6629C98.6732 46.1808 97.4381 44.5277 96.6781 42.7035C95.9561 40.8414 95.595 38.9223 95.595 36.9462C95.595 35.0461 95.9751 33.1839 96.7351 31.3598C97.4952 29.4977 98.7302 27.8446 100.44 26.4005C102.15 24.9184 104.678 24.1204 108.022 24.0064H131.963C133.027 24.0064 133.939 24.3674 134.699 25.0894C135.46 25.7735 135.859 26.6475 135.897 27.7116V45.7247C135.897 48.7649 135.479 51.6341 134.642 54.3323C133.882 56.7264 132.628 58.7406 130.88 60.3747C129.17 62.0468 126.985 62.9588 124.325 63.1108H104.602C103.576 63.0728 102.701 62.6928 101.979 61.9708C101.295 61.2867 100.934 60.4317 100.896 59.4056C100.896 58.3415 101.238 57.4295 101.922 56.6694C102.644 55.9094 103.538 55.5103 104.602 55.4723H122.387C123.831 55.3963 125.028 54.8453 125.978 53.8192C126.928 52.7932 127.536 51.5961 127.802 50.228C128.068 48.8599 128.201 47.0928 128.201 44.9267V33.1269ZM175.457 46.8648V33.1269C175.457 32.1769 174.963 31.6828 173.975 31.6448H154.024C153.302 31.6828 152.675 32.0059 152.143 32.6139C151.611 33.1839 151.212 33.868 150.946 34.666C150.717 35.4261 150.603 36.2051 150.603 37.0032C150.603 37.7632 150.717 38.5423 150.946 39.3403C151.212 40.1004 151.611 40.7844 152.143 41.3925C152.675 41.9625 153.302 42.2475 154.024 42.2475H168.617C169.681 42.2475 170.574 42.6275 171.296 43.3876C172.056 44.1096 172.436 45.0027 172.436 46.0668C172.436 47.1308 172.056 48.0239 171.296 48.7459C170.574 49.506 169.681 49.886 168.617 49.886H154.252C151.592 49.848 149.387 49.1069 147.639 47.6629C145.929 46.1808 144.694 44.5277 143.934 42.7035C143.212 40.8414 142.851 38.9223 142.851 36.9462C142.851 35.0461 143.231 33.1839 143.991 31.3598C144.751 29.4977 145.986 27.8446 147.696 26.4005C149.406 24.9184 151.934 24.1204 155.278 24.0064H179.219C180.283 24.0064 181.195 24.3674 181.955 25.0894C182.716 25.7735 183.115 26.6475 183.153 27.7116V46.8648C183.153 47.9289 182.754 48.8219 181.955 49.544C181.195 50.228 180.283 50.57 179.219 50.57C176.939 50.38 175.685 49.1449 175.457 46.8648Z" fill="white"/>
<path d="M140.366 55.7349V64.8513C140.366 65.2501 140.573 65.4575 140.988 65.4734H149.363C149.666 65.4575 149.929 65.3298 150.152 65.0906C150.376 64.8353 150.535 64.5482 150.631 64.2292C150.743 63.8942 150.798 63.5592 150.798 63.2242C150.798 62.9052 150.743 62.5862 150.631 62.2671C150.535 61.9321 150.376 61.645 150.152 61.4057C149.929 61.1505 149.666 61.0229 149.363 61.0229H143.237C142.791 61.0229 142.408 60.8714 142.089 60.5683C141.786 60.2493 141.634 59.8664 141.634 59.4198C141.634 58.9731 141.794 58.5983 142.113 58.2952C142.416 57.9761 142.791 57.8166 143.237 57.8166H149.267C150.384 57.8326 151.301 58.1516 152.019 58.7737C152.752 59.3799 153.271 60.0738 153.574 60.8554C153.893 61.6211 154.053 62.4187 154.053 63.2482C154.053 64.0457 153.893 64.8353 153.574 65.617C153.255 66.3827 152.737 67.0765 152.019 67.6987C151.301 68.3048 150.24 68.6318 148.836 68.6797H138.787C138.34 68.6797 137.957 68.5361 137.638 68.249C137.319 67.9459 137.152 67.571 137.136 67.1244V55.7349C137.136 55.2883 137.295 54.9214 137.614 54.6343C137.949 54.3312 138.34 54.1797 138.787 54.1797C139.744 54.2594 140.27 54.7778 140.366 55.7349ZM159.997 68.6797C158.593 68.6318 157.533 68.3048 156.815 67.6987C156.097 67.0765 155.578 66.3827 155.259 65.617C154.94 64.8353 154.781 64.0457 154.781 63.2482C154.781 62.4187 154.932 61.6211 155.236 60.8554C155.555 60.0738 156.073 59.3799 156.791 58.7737C157.525 58.1516 158.45 57.8326 159.566 57.8166H167.319C168.435 57.8326 169.353 58.1516 170.071 58.7737C170.804 59.3799 171.323 60.0738 171.626 60.8554C171.945 61.6211 172.104 62.4187 172.104 63.2482C172.104 64.0457 171.945 64.8353 171.626 65.617C171.307 66.3827 170.788 67.0765 170.071 67.6987C169.353 68.3048 168.292 68.6318 166.888 68.6797H159.997ZM159.471 61.0229C159.168 61.0229 158.904 61.1505 158.681 61.4057C158.458 61.645 158.29 61.9321 158.179 62.2671C158.083 62.5862 158.035 62.9052 158.035 63.2242C158.035 63.5592 158.083 63.8942 158.179 64.2292C158.29 64.5482 158.458 64.8353 158.681 65.0906C158.904 65.3298 159.168 65.4575 159.471 65.4734H167.415C167.718 65.4575 167.981 65.3298 168.204 65.0906C168.428 64.8353 168.587 64.5482 168.683 64.2292C168.794 63.8942 168.85 63.5592 168.85 63.2242C168.85 62.9052 168.794 62.5862 168.683 62.2671C168.587 61.9321 168.428 61.645 168.204 61.4057C167.981 61.1505 167.718 61.0229 167.415 61.0229H159.471ZM178.456 54.1797C178.902 54.1797 179.285 54.3312 179.604 54.6343C179.923 54.9214 180.091 55.2883 180.107 55.7349V57.8166H188.242C188.689 57.8166 189.071 57.9682 189.39 58.2712C189.694 58.5903 189.845 58.9731 189.845 59.4198C189.845 59.8664 189.686 60.2493 189.367 60.5683C189.063 60.8714 188.689 61.0229 188.242 61.0229H180.107V61.5015C180.091 62.1555 180.131 62.7616 180.226 63.3199C180.338 63.8623 180.593 64.3488 180.992 64.7795C181.391 65.2102 181.893 65.4415 182.499 65.4734H188.338C188.784 65.4894 189.151 65.6569 189.438 65.9759C189.741 66.2949 189.893 66.6778 189.893 67.1244C189.877 67.5551 189.718 67.922 189.414 68.2251C189.127 68.5122 188.768 68.6637 188.338 68.6797H181.686C180.569 68.6159 179.644 68.241 178.91 67.5551C178.192 66.8532 177.674 65.9998 177.355 64.9949C177.052 63.9899 176.892 62.9211 176.876 61.7886V61.0229H174.125C173.678 61.0229 173.303 60.8634 173 60.5444C172.681 60.2413 172.522 59.8664 172.522 59.4198C172.522 58.9731 172.673 58.5983 172.976 58.2952C173.295 57.9761 173.678 57.8166 174.125 57.8166H176.876V55.7349C176.892 55.3042 177.052 54.9453 177.355 54.6582C177.658 54.3551 178.025 54.1956 178.456 54.1797Z" fill="white"/>
</svg>
